<svg viewBox="0 0 17 22" fill="none" xmlns="http://www.w3.org/2000/svg">
<path d="M14.1974 12.1179C14.1737 9.45107 16.3537 8.17067 16.4475 8.11133C15.2224 6.29933 13.3111 6.04679 12.6349 6.01649C11.0098 5.85107 9.461 6.98499 8.63472 6.98499C7.80844 6.98499 6.53715 6.04427 5.19211 6.07078C3.41705 6.09604 1.78699 7.11252 0.873212 8.71111C-0.9656 11.9361 0.400697 16.7167 2.19826 19.3318C3.07329 20.6122 4.11582 22.0504 5.48712 21.9986C6.81091 21.9469 7.31093 21.1362 8.90848 21.1362C10.506 21.1362 10.956 21.9986 12.3548 21.9772C13.7749 21.9469 14.6774 20.6665 15.545 19.3861C16.1699 18.4617 16.66 17.4513 17 16.3859C16.9662 16.3745 14.2249 15.3113 14.1974 12.1179Z" fill="#222222"/>
<path d="M11.9512 3.45687C12.6416 2.54204 13.1074 1.26778 12.9786 0C11.9867 0.041524 10.7844 0.72667 10.0739 1.6389C9.43431 2.45251 8.87276 3.75143 9.02526 4.99196C10.1306 5.08409 11.2644 4.37299 11.9512 3.45687Z" fill="#222222"/>
</svg>
