<svg viewBox="0 0 14 14" fill="none" xmlns="http://www.w3.org/2000/svg">
<path d="M1.79222 1.11286C1.47878 1.02068 1.32206 0.974581 1.21536 1.01436C1.12237 1.04902 1.04902 1.12237 1.01436 1.21536C0.974581 1.32206 1.02067 1.47878 1.11286 1.79222L3.98967 11.5734C4.07533 11.8646 4.11817 12.0103 4.20462 12.0779C4.28006 12.1369 4.37678 12.1615 4.47126 12.1459C4.57952 12.1279 4.68687 12.0206 4.90155 11.8059L6.98573 9.7217L10.0188 12.7547C10.1542 12.8902 10.2219 12.9579 10.3 12.9833C10.3687 13.0056 10.4427 13.0056 10.5114 12.9833C10.5895 12.9579 10.6572 12.8902 10.7926 12.7547L12.7547 10.7926C12.8902 10.6572 12.9579 10.5895 12.9833 10.5114C13.0056 10.4427 13.0056 10.3687 12.9833 10.3C12.9579 10.2219 12.8902 10.1542 12.7547 10.0188L9.7217 6.98573L11.8059 4.90155C12.0206 4.68687 12.1279 4.57952 12.1459 4.47126C12.1615 4.37678 12.1369 4.28006 12.0779 4.20462C12.0103 4.11817 11.8646 4.07533 11.5734 3.98967L1.79222 1.11286Z" stroke="#8083A3" stroke-width="1.5" stroke-linecap="round" stroke-linejoin="round"/>
</svg>
