<svg viewBox="0 0 18 19" fill="none" xmlns="http://www.w3.org/2000/svg">
<path d="M5.56 7.63965L1 9.87965L8.68 13.7196C8.76 13.7996 8.84 13.7996 8.92 13.7996C9 13.7996 9 13.7996 9.08 13.7996C9.16 13.7996 9.16 13.7996 9.32 13.7196L17 9.87965L12.52 7.63965" stroke="#7747FF" stroke-width="1.5" stroke-linecap="round" stroke-linejoin="round"/>
<path d="M8.99977 9.48C11.3415 9.48 13.2398 7.58169 13.2398 5.24C13.2398 2.89831 11.3415 1 8.99977 1C6.65808 1 4.75977 2.89831 4.75977 5.24C4.75977 7.58169 6.65808 9.48 8.99977 9.48Z" stroke="#7747FF" stroke-width="1.5" stroke-linecap="round" stroke-linejoin="round"/>
<path d="M1 13.8799L8.68 17.7199C8.76 17.7999 8.84 17.7999 8.92 17.7999C9 17.7999 9 17.7999 9.08 17.7999C9.16 17.7999 9.16 17.7999 9.32 17.7199L17 13.8799" stroke="#7747FF" stroke-width="1.5" stroke-linecap="round" stroke-linejoin="round"/>
</svg>
