<svg viewBox="0 0 16 17" fill="none" xmlns="http://www.w3.org/2000/svg">
<path d="M14.6111 4.90658L7.99998 8.49998M7.99998 8.49998L1.38886 4.90658M7.99998 8.49998L8 15.7291M15 11.5884V5.41162C15 5.15089 15 5.02052 14.9607 4.90425C14.926 4.80138 14.8692 4.70696 14.7942 4.6273C14.7094 4.53725 14.5929 4.47394 14.3599 4.34731L8.60436 1.21894C8.38378 1.09905 8.27348 1.0391 8.15668 1.0156C8.05331 0.9948 7.94669 0.9948 7.84332 1.0156C7.72652 1.0391 7.61623 1.09905 7.39564 1.21895L1.64009 4.34732C1.40713 4.47394 1.29064 4.53725 1.20583 4.6273C1.13079 4.70697 1.074 4.80139 1.03927 4.90425C1 5.02052 1 5.15089 1 5.41163V11.5884C1 11.8491 1 11.9795 1.03927 12.0958C1.074 12.1986 1.13079 12.293 1.20583 12.3727C1.29064 12.4627 1.40713 12.5261 1.64009 12.6527L7.39564 15.7811C7.61623 15.9009 7.72652 15.9609 7.84332 15.9844C7.94669 16.0052 8.05331 16.0052 8.15668 15.9844C8.27348 15.9609 8.38377 15.9009 8.60436 15.7811L14.3599 12.6527C14.5929 12.5261 14.7094 12.4627 14.7942 12.3727C14.8692 12.293 14.926 12.1986 14.9607 12.0958C15 11.9795 15 11.8491 15 11.5884Z" stroke="#C3C5CE" stroke-width="1.5" stroke-linecap="round" stroke-linejoin="round"/>
</svg>
