<svg viewBox="0 0 15 19" fill="none" xmlns="http://www.w3.org/2000/svg">
<path d="M7.196 7.46301C8.96614 7.46301 10.3822 6.02679 10.3822 4.23151C10.3822 2.43623 8.96614 1 7.196 1C5.42587 1 4.00977 2.43623 4.00977 4.23151C4.00977 6.02679 5.42587 7.46301 7.196 7.46301Z" stroke="#696868" stroke-width="1.5" stroke-miterlimit="10" stroke-linecap="round" stroke-linejoin="round"/>
<path d="M9.67365 7.58252H4.83529C2.71113 7.58252 1 9.31796 1 11.4723V16.5589C1 17.3967 1.70805 18.1148 2.53411 18.1148C3.36018 18.1148 4.06823 17.3967 4.06823 16.5589V14.4046H5.72035H6.84144H7.78551H8.55256H10.4997V16.5589C10.4997 17.3967 11.2078 18.1148 12.0338 18.1148C12.4469 18.1148 12.8009 17.9353 13.0959 17.6959C13.3909 17.4566 13.5679 17.0377 13.5679 16.6188C13.5679 16.6188 13.5679 16.6188 13.5679 16.5589V11.5321C13.5089 9.31796 11.7978 7.58252 9.67365 7.58252Z" stroke="#696868" stroke-width="1.5" stroke-miterlimit="10" stroke-linecap="round" stroke-linejoin="round"/>
<path d="M7.25488 16.9782V14.4648" stroke="#696868" stroke-width="1.5" stroke-miterlimit="10" stroke-linecap="round"/>
</svg>
