<svg viewBox="0 0 15 19" fill="none" xmlns="http://www.w3.org/2000/svg">
<path d="M7.19552 7.46301C8.96565 7.46301 10.3818 6.02679 10.3818 4.23151C10.3818 2.43623 8.96565 1 7.19552 1C5.42538 1 4.00928 2.43623 4.00928 4.23151C4.00928 6.02679 5.42538 7.46301 7.19552 7.46301Z" stroke="#7747FF" stroke-width="1.5" stroke-miterlimit="10" stroke-linecap="round" stroke-linejoin="round"/>
<path d="M9.67365 7.58203H4.83529C2.71113 7.58203 1 9.31747 1 11.4718V16.5584C1 17.3962 1.70805 18.1143 2.53411 18.1143C3.36018 18.1143 4.06823 17.3962 4.06823 16.5584V14.4041H5.72035H6.84144H7.78551H8.55256H10.4997V16.5584C10.4997 17.3962 11.2078 18.1143 12.0338 18.1143C12.4469 18.1143 12.8009 17.9348 13.0959 17.6955C13.3909 17.4561 13.5679 17.0372 13.5679 16.6183C13.5679 16.6183 13.5679 16.6183 13.5679 16.5584V11.5317C13.5089 9.31747 11.7978 7.58203 9.67365 7.58203Z" stroke="#7747FF" stroke-width="1.5" stroke-miterlimit="10" stroke-linecap="round" stroke-linejoin="round"/>
<path d="M7.25439 16.9782V14.4648" stroke="#7747FF" stroke-width="1.5" stroke-miterlimit="10" stroke-linecap="round"/>
</svg>
