<svg viewBox="0 0 15 18" fill="none" xmlns="http://www.w3.org/2000/svg">
<path d="M10.2835 6.75V4.5C10.2835 2.84315 9.013 1.5 7.4458 1.5C5.8786 1.5 4.60814 2.84315 4.60814 4.5V6.75M1.48104 7.76397L1.05539 12.564C0.934368 13.9287 0.873856 14.6111 1.08806 15.1382C1.27623 15.6012 1.60598 15.984 2.02446 16.2253C2.50084 16.5 3.14913 16.5 4.44572 16.5H10.4459C11.7425 16.5 12.3908 16.5 12.8671 16.2253C13.2856 15.984 13.6154 15.6012 13.8035 15.1382C14.0177 14.6111 13.9572 13.9287 13.8362 12.564L13.4106 7.76397C13.3084 6.61151 13.2573 6.03528 13.0121 5.59962C12.7962 5.21594 12.4772 4.90883 12.0957 4.71738C11.6626 4.5 11.1151 4.5 10.0202 4.5L4.87137 4.5C3.77649 4.5 3.22905 4.5 2.79588 4.71738C2.41439 4.90883 2.0954 5.21594 1.87949 5.59962C1.63434 6.03528 1.58324 6.61151 1.48104 7.76397Z" stroke="white" stroke-width="1.5" stroke-linecap="round" stroke-linejoin="round"/>
</svg>
