<svg viewBox="0 0 16 16" fill="none" xmlns="http://www.w3.org/2000/svg">
<circle cx="8" cy="8" r="7.5" fill="#CC79FD" stroke="#B045EF"/>
<path d="M8.22868 11.8962C9.21551 11.8962 10.0726 11.6172 10.7276 11.0909C11.0581 10.8254 11.0124 10.343 10.7118 10.0655C10.3843 9.76318 9.88597 9.81554 9.5252 10.0454C9.17092 10.2711 8.76899 10.3855 8.32068 10.3855C7.66313 10.3855 7.10377 10.1548 6.70893 9.76124C6.31411 9.36766 6.08091 8.80835 6.08091 8.14576C6.08091 7.48317 6.31411 6.92385 6.70893 6.53028C7.10377 6.13668 7.66313 5.90598 8.32068 5.90598C8.76914 5.90598 9.17129 6.02052 9.52577 6.24383C9.88619 6.47088 10.3818 6.52042 10.7078 6.21947C11.0103 5.94027 11.0546 5.45446 10.7201 5.18966C10.0666 4.67226 9.2141 4.39531 8.23891 4.39531C5.98547 4.39531 4.30446 5.9587 4.30446 8.14576C4.30446 10.3327 5.98538 11.8962 8.22868 11.8962Z" fill="white" stroke="white" stroke-width="0.1"/>
</svg>
