<svg width="177" height="38" viewBox="0 0 177 38" fill="none" xmlns="http://www.w3.org/2000/svg">
<mask id="mask0_1782_98855" style="mask-type:alpha" maskUnits="userSpaceOnUse" x="3" y="0" width="21" height="19">
<path d="M12.9623 0.236987C11.0091 0.592469 9.23348 1.30343 7.57623 2.48837C6.74761 3.02159 6.03736 3.67331 5.3863 4.38427C5.3863 4.44352 5.3863 4.44352 5.32711 4.44352C5.32711 4.44352 5.32711 4.44351 5.26792 4.50276C5.26792 4.56201 5.20873 4.56201 5.20873 4.62126C4.85361 5.15448 4.49849 5.6877 4.26174 6.22092C3.55149 7.70209 3.37393 9.24251 3.66986 10.8422C3.9658 12.2641 4.49849 13.5083 5.32711 14.7525C6.27411 16.2336 7.51704 17.4778 8.87835 18.6035C8.93754 18.6628 9.1151 18.7813 9.1151 18.7813C9.1151 18.7813 9.52941 18.4258 9.76616 18.248C11.4234 16.8854 13.2582 15.7597 15.2706 15.0487C16.5727 14.5747 17.8748 14.16 19.1178 13.5675C20.1831 13.0936 21.1893 12.5603 22.1363 11.7901C22.9058 11.1384 23.5568 10.309 23.7936 9.30176C24.1487 7.93908 24.0303 6.63565 23.5568 5.33222C23.0241 3.91029 22.1363 2.7846 20.8934 1.83665C19.828 1.0072 18.6443 0.473975 17.283 0.236987C16.6319 0.0592469 16.04 0 15.389 0C14.5603 0 13.7909 0.0592469 12.9623 0.236987Z" fill="white"/>
</mask>
<g mask="url(#mask0_1782_98855)">
<path d="M32.4346 13.1521L9.29237 28.0823L-5.3269 5.44999L17.8154 -9.48022L32.4346 13.1521Z" fill="url(#paint0_linear_1782_98855)"/>
</g>
<mask id="mask1_1782_98855" style="mask-type:alpha" maskUnits="userSpaceOnUse" x="6" y="18" width="18" height="20">
<path d="M7.85622 34.7776C8.09297 34.9554 8.38891 35.1331 8.62566 35.2516C8.98078 35.4886 9.39509 35.6663 9.75022 35.8441C10.6972 36.318 11.7034 36.6143 12.7688 36.8513C13.7158 37.029 14.6628 37.1475 15.6098 37.0883C16.0833 37.0883 16.5568 37.029 17.0303 36.9698C17.8589 36.8513 18.6875 36.555 19.3978 36.1995C20.0488 35.9033 20.6407 35.4886 21.1734 35.0146C21.5877 34.6591 22.002 34.2444 22.3571 33.7704C22.7714 33.2372 23.1266 32.6447 23.3633 32.0523C23.4817 31.6968 23.6001 31.3413 23.7184 30.9858C23.7776 30.6303 23.8368 30.2749 23.896 29.9194C23.9552 29.4454 23.896 28.9714 23.8368 28.4975C23.7776 27.905 23.5409 27.3718 23.2449 26.8385C23.0674 26.4831 22.8306 26.1868 22.5347 25.8906C22.1796 25.4759 21.7653 25.1796 21.3509 24.8834C20.8774 24.5279 20.3448 24.2317 19.8121 23.9947C19.161 23.6985 18.5691 23.4022 17.9181 23.1652C17.3262 22.9283 16.7343 22.7505 16.1425 22.5135C15.0771 22.0988 14.0117 21.7433 13.0055 21.1508C12.1177 20.6769 11.3483 20.1436 10.5788 19.6104C10.0462 19.2549 9.51347 18.8402 9.03997 18.3662C9.03997 18.3662 4.24579 25.0019 7.85622 34.7776Z" fill="white"/>
</mask>
<g mask="url(#mask1_1782_98855)">
<path d="M23.794 18.6626H4.08466V37.4439H23.794V18.6626Z" fill="url(#paint1_linear_1782_98855)"/>
</g>
<mask id="mask2_1782_98855" style="mask-type:alpha" maskUnits="userSpaceOnUse" x="0" y="4" width="10" height="31">
<path d="M5.32686 4.32474C4.6758 5.03571 4.14312 5.74667 3.61043 6.51688C3.07774 7.34633 2.60424 8.17579 2.18993 9.00525C1.83481 9.71621 1.53887 10.4272 1.30212 11.1974C0.887811 12.3823 0.591874 13.5673 0.355124 14.8114C0.177562 15.9371 0.0591874 17.0628 0 18.2478C0 18.7217 0 19.1957 0 19.6697C0.0591874 20.4991 0.118375 21.2694 0.236749 22.0396C0.355124 22.8098 0.473499 23.6392 0.769436 24.4094C1.30212 25.9499 1.95318 27.4903 2.78181 28.9122C3.19612 29.6232 3.66962 30.3341 4.2023 30.9858C4.55743 31.4006 4.91255 31.7561 5.20849 32.23C5.50443 32.5855 5.80036 33.0002 6.15549 33.2965C6.51061 33.6519 6.86573 33.9482 7.22086 34.2444C7.5168 34.4814 7.87192 34.7184 8.16786 34.9554C4.55743 25.1204 9.3516 18.544 9.3516 18.544C9.3516 18.544 9.17404 18.4255 9.11485 18.3663C7.75354 17.2406 6.5698 15.9964 5.56361 14.5152C4.79418 13.3303 4.2023 12.0268 3.90637 10.6049C3.61043 8.88675 3.78799 7.34633 4.49824 5.86516C4.73499 5.27269 5.09011 4.73947 5.44524 4.2655C5.44524 4.20625 5.50443 4.20625 5.50443 4.147C5.44524 4.20625 5.38605 4.2655 5.32686 4.32474Z" fill="white"/>
</mask>
<g mask="url(#mask2_1782_98855)">
<path d="M10.7125 4.44399L9.46955 35.4894L-1.0658 35.0746L0.177139 4.02927L10.7125 4.44399Z" fill="url(#paint2_linear_1782_98855)"/>
</g>
<path d="M37.5413 27.8951C35.0261 27.8951 32.9824 27.0559 31.4104 25.4298C29.786 23.7513 29 21.6532 29 19.1355C29 16.5653 29.8384 14.4671 31.4628 12.7886C33.1396 11.1101 35.2357 10.3233 37.7509 10.3233C39.4277 10.3233 40.8949 10.6905 42.2573 11.4773C43.6197 12.2641 44.6153 13.3132 45.2441 14.6245L43.7245 15.5162C43.1481 14.4671 42.3621 13.5754 41.2617 12.946C40.2137 12.3166 39.0085 12.0018 37.7509 12.0018C35.7597 12.0018 34.0828 12.6837 32.8252 13.9951C31.5152 15.4113 30.8864 17.0898 30.8864 19.1355C30.8864 21.1811 31.5152 22.8596 32.7728 24.171C34.0304 25.4823 35.6025 26.1642 37.5937 26.1642C38.8513 26.1642 40.0565 25.8495 41.1569 25.1676C42.2573 24.5381 43.0957 23.6989 43.6721 22.6498L45.1917 23.594C44.5629 24.8529 43.5149 25.9019 42.1001 26.6887C40.7377 27.528 39.2181 27.8951 37.5413 27.8951Z" fill="white"/>
<path d="M46.8685 19.083C46.8685 16.5653 47.7069 14.5196 49.3313 12.8411C51.0081 11.1626 53.1041 10.2709 55.5669 10.2709C58.0822 10.2709 60.1258 11.1101 61.8026 12.8411C63.4794 14.5196 64.2654 16.6177 64.2654 19.083C64.2654 21.6008 63.427 23.6989 61.8026 25.3774C60.1258 27.0559 58.0298 27.9476 55.5669 27.9476C53.0517 27.9476 51.0081 27.1083 49.3313 25.3774C47.6545 23.6989 46.8685 21.6008 46.8685 19.083ZM55.5669 26.2166C57.5582 26.2166 59.1826 25.5347 60.4402 24.171C61.7502 22.7547 62.379 21.0762 62.379 19.1355C62.379 17.1422 61.7502 15.4637 60.4402 14.1C59.1302 12.7362 57.5058 12.0543 55.5669 12.0543C53.6281 12.0543 52.0037 12.7362 50.6937 14.1524C49.3837 15.5162 48.7549 17.1947 48.7549 19.1355C48.7549 21.1287 49.3837 22.8072 50.6937 24.171C52.0037 25.5347 53.6281 26.2166 55.5669 26.2166Z" fill="white"/>
<path d="M69.3486 3.81909H67.4622V27.5279H69.3486V3.81909Z" fill="white"/>
<path d="M72.5453 19.083C72.5453 16.5653 73.3838 14.5196 75.0082 12.8411C76.685 11.1626 78.781 10.2709 81.2438 10.2709C83.7591 10.2709 85.8027 11.1101 87.4795 12.8411C89.1563 14.5196 89.9423 16.6177 89.9423 19.083C89.9423 21.6008 89.1039 23.6989 87.4795 25.3774C85.8027 27.0559 83.7067 27.9476 81.2438 27.9476C78.7286 27.9476 76.685 27.1083 75.0082 25.3774C73.3838 23.6989 72.5453 21.6008 72.5453 19.083ZM81.2438 26.2166C83.235 26.2166 84.8595 25.5347 86.1171 24.171C87.4271 22.7547 88.0559 21.0762 88.0559 19.1355C88.0559 17.1422 87.4271 15.4637 86.1171 14.1C84.8071 12.7362 83.1826 12.0543 81.2438 12.0543C79.305 12.0543 77.6806 12.7362 76.3706 14.1524C75.0606 15.5162 74.4318 17.1947 74.4318 19.1355C74.4318 21.1287 75.0606 22.8072 76.3706 24.171C77.6806 25.5347 79.305 26.2166 81.2438 26.2166Z" fill="white"/>
<path d="M109.802 24.5906L115.671 10.7429H117.767L110.378 27.4755H109.173L101.784 10.7429H103.88L109.802 24.5906Z" fill="white"/>
<path d="M134.483 18.4011C134.483 18.6109 134.43 19.1354 134.378 19.8698H120.282C120.439 21.7581 121.121 23.2792 122.273 24.4332C123.479 25.5872 125.051 26.1641 127.094 26.1641C128.195 26.1641 129.295 26.0068 130.395 25.6396C131.548 25.2724 132.491 24.8004 133.225 24.1709L134.116 25.6396C133.277 26.3215 132.177 26.846 130.919 27.3181C129.662 27.7377 128.352 28 127.042 28C124.16 28 121.959 27.1607 120.492 25.4298C119.024 23.6988 118.291 21.6007 118.291 19.1879C118.291 16.6701 119.077 14.572 120.597 12.8935C122.116 11.215 124.16 10.4282 126.675 10.4282C128.928 10.4282 130.815 11.1625 132.282 12.6312C133.749 13.9426 134.483 15.9358 134.483 18.4011ZM126.675 12.0542C124.893 12.0542 123.479 12.6312 122.273 13.7327C121.121 14.8343 120.439 16.3029 120.23 18.1388H132.544C132.544 16.3029 131.967 14.8343 130.919 13.7327C129.819 12.5788 128.404 12.0542 126.675 12.0542Z" fill="white"/>
<path d="M152.351 27.8951C151.094 27.8951 149.888 27.5803 148.893 26.9509C147.845 26.3215 147.006 25.4298 146.43 24.2233L147.95 23.2792C148.945 25.2199 150.412 26.2166 152.351 26.2166C153.452 26.2166 154.395 25.9018 155.076 25.2724C155.81 24.643 156.176 23.9086 156.176 23.0169C156.176 21.9154 155.443 21.0237 154.028 20.2894C153.609 20.0795 152.928 19.8173 152.037 19.4501C150.989 19.0305 150.308 18.7158 150.046 18.5584C148.264 17.6667 147.373 16.3554 147.373 14.6244C147.373 13.3131 147.845 12.264 148.788 11.4248C149.731 10.5855 150.989 10.1659 152.508 10.1659C154.814 10.1659 156.491 11.0576 157.539 12.7886L156.229 13.8376C155.443 12.4738 154.185 11.7919 152.456 11.7919C151.408 11.7919 150.622 12.0542 150.046 12.5263C149.469 13.0508 149.155 13.6803 149.155 14.5195C149.155 15.621 149.784 16.4603 150.989 17.0897L152.875 17.929C154.028 18.401 154.814 18.7158 155.128 18.9256C157.12 19.8697 158.063 21.2335 158.063 22.9645C158.063 24.3807 157.539 25.5347 156.438 26.5313C155.443 27.423 154.08 27.8951 152.351 27.8951Z" fill="white"/>
<path d="M176.14 18.4011C176.14 18.6109 176.088 19.1354 176.036 19.8698H161.94C162.097 21.7581 162.778 23.2792 163.931 24.4332C165.136 25.5872 166.708 26.1641 168.752 26.1641C169.852 26.1641 170.953 26.0068 172.053 25.6396C173.206 25.2724 174.149 24.8004 174.883 24.1709L175.774 25.6396C174.935 26.3215 173.835 26.846 172.577 27.3181C171.32 27.7377 170.01 28 168.7 28C165.818 28 163.617 27.1607 162.15 25.4298C160.682 23.6988 159.949 21.6007 159.949 19.1879C159.949 16.6701 160.735 14.572 162.254 12.8935C163.774 11.215 165.818 10.4282 168.333 10.4282C170.586 10.4282 172.472 11.1625 173.94 12.6312C175.407 13.9426 176.14 15.9358 176.14 18.4011ZM168.333 12.0542C166.551 12.0542 165.136 12.6312 163.931 13.7327C162.778 14.8343 162.097 16.3029 161.888 18.1388H174.149C174.149 16.3029 173.573 14.8343 172.525 13.7327C171.477 12.5788 170.062 12.0542 168.333 12.0542Z" fill="white"/>
<path d="M139.722 27.4755H137.888V19.2403C137.888 14.7818 141.399 10.9527 145.853 10.5856C146.063 10.5856 146.325 10.5331 146.587 10.5331V12.369C146.377 12.369 146.22 12.369 146.01 12.369C142.499 12.6312 139.775 15.6211 139.775 19.1354V27.4755H139.722Z" fill="white"/>
<path d="M94.0295 27.4755H92.1954V19.2403C92.1954 14.7818 95.7063 10.9527 100.16 10.5856C100.422 10.5856 100.632 10.5331 100.894 10.5331V12.369C100.684 12.369 100.527 12.369 100.318 12.369C96.8067 12.6312 94.0819 15.6211 94.0819 19.1354V27.4755H94.0295Z" fill="white"/>
<defs>
<linearGradient id="paint0_linear_1782_98855" x1="33.6943" y1="-3.71784" x2="9.19687" y2="12.0607" gradientUnits="userSpaceOnUse">
<stop stop-color="#5AD9FD"/>
<stop offset="1" stop-color="#0A42A2"/>
</linearGradient>
<linearGradient id="paint1_linear_1782_98855" x1="6.38785" y1="28.0706" x2="23.7791" y2="28.0706" gradientUnits="userSpaceOnUse">
<stop stop-color="#FEE372"/>
<stop offset="1" stop-color="#FAAF42"/>
</linearGradient>
<linearGradient id="paint2_linear_1782_98855" x1="5.33928" y1="6.45274" x2="4.26374" y2="33.7442" gradientUnits="userSpaceOnUse">
<stop stop-color="#E1382F"/>
<stop offset="0.00446888" stop-color="#E1382F"/>
<stop offset="1" stop-color="#FB6C7E"/>
</linearGradient>
</defs>
</svg>
