<svg viewBox="0 0 21 18" fill="none" xmlns="http://www.w3.org/2000/svg">
<path d="M8.78593 9.77641C10.2236 9.77641 11.5016 9.15072 12.46 8.21218L13.1789 8.52503C13.4185 8.05576 13.6581 7.58649 14.0575 7.19543L13.4185 6.88259C13.738 6.2569 13.8977 5.553 13.8977 4.8491C13.8179 2.18991 11.5815 0 8.78593 0C5.99041 0 3.83386 2.18992 3.83386 4.92731C3.83386 5.63121 3.99361 6.33511 4.31309 6.9608L0.559105 8.83787C0.239616 8.91608 0 9.15072 0 9.46356C0 9.77641 0.159744 10.011 0.479233 10.1675L8.22683 13.9216C8.38657 13.9998 8.46644 14.078 8.62619 14.078C8.70606 14.078 8.78593 14.078 8.8658 14.078C8.94568 14.078 9.02555 14.078 9.10542 14.078C9.26516 14.078 9.42491 13.9998 9.50478 13.9216L12.9393 12.2792C12.7795 11.8099 12.7795 11.3406 12.7795 10.8714C12.7795 10.7932 12.7795 10.7149 12.7795 10.6367L8.78593 12.5138L2.55591 9.46356L5.11181 8.21218C6.07028 9.22893 7.34823 9.77641 8.78593 9.77641ZM8.78593 1.56422C10.7029 1.56422 12.2204 3.05024 12.2204 4.92731C12.2204 6.80438 10.7029 8.29039 8.78593 8.29039C6.869 8.29039 5.4313 6.72617 5.4313 4.92731C5.4313 3.12845 6.94887 1.56422 8.78593 1.56422Z" fill="white"/>
<path d="M13.658 13.9994L8.78582 16.3458L1.1181 12.5916C0.718735 12.4352 0.239502 12.5916 0.0797583 12.9045C-0.0799859 13.2955 0.0797583 13.7648 0.399247 13.9212L8.06697 17.6754C8.22671 17.7536 8.30659 17.8318 8.46633 17.8318C8.5462 17.8318 8.62607 17.8318 8.70595 17.8318C8.78582 17.8318 8.86569 17.8318 8.94556 17.8318C9.10531 17.8318 9.26505 17.7536 9.34492 17.6754L14.6964 15.0162C14.3769 14.8598 13.9775 14.4687 13.658 13.9994Z" fill="white"/>
<path d="M14.2173 10.7148H19.8882" stroke="white" stroke-width="1.5" stroke-miterlimit="10" stroke-linecap="round"/>
<path d="M17.0928 7.89893V13.4519" stroke="white" stroke-width="1.5" stroke-miterlimit="10" stroke-linecap="round"/>
</svg>
