<svg viewBox="0 0 74 74" fill="none" xmlns="http://www.w3.org/2000/svg">
<circle cx="37" cy="37" r="36.5" fill="white" stroke="#E6E5E5"/>
<path d="M42.5386 50C44.9323 50 46.1292 50 47.0086 49.5239C47.7812 49.1057 48.39 48.4421 48.7374 47.6396C49.1328 46.726 49.0211 45.5432 48.7977 43.1776L48.0119 34.8576C47.8232 32.86 47.7289 31.8611 47.2763 31.106C46.8777 30.441 46.2888 29.9086 45.5845 29.5768C44.7848 29.2 43.7741 29.2 41.7528 29.2L32.2472 29.2C30.2259 29.2 29.2152 29.2 28.4155 29.5768C27.7112 29.9086 27.1223 30.441 26.7237 31.106C26.2711 31.8611 26.1768 32.8599 25.9881 34.8576L25.2023 43.1776C24.9789 45.5432 24.8672 46.726 25.2626 47.6396C25.61 48.4421 26.2188 49.1057 26.9914 49.5239C27.8708 50 29.0677 50 31.4614 50H42.5386Z" fill="#7747FF"/>
<path d="M42.2388 33.1V29.2C42.2388 26.3281 39.8933 24 37 24C34.1067 24 31.7612 26.3281 31.7612 29.2V33.1M25.9881 34.8576L25.2023 43.1776C24.9789 45.5432 24.8672 46.726 25.2626 47.6396C25.61 48.4421 26.2188 49.1057 26.9914 49.5239C27.8708 50 29.0677 50 31.4614 50H42.5386C44.9323 50 46.1292 50 47.0086 49.5239C47.7812 49.1057 48.39 48.4421 48.7374 47.6396C49.1328 46.726 49.0211 45.5432 48.7977 43.1776L48.0119 34.8576C47.8232 32.86 47.7289 31.8611 47.2763 31.106C46.8777 30.441 46.2888 29.9086 45.5845 29.5768C44.7848 29.2 43.7741 29.2 41.7528 29.2L32.2472 29.2C30.2259 29.2 29.2152 29.2 28.4155 29.5768C27.7112 29.9086 27.1223 30.441 26.7237 31.106C26.2711 31.8611 26.1768 32.8599 25.9881 34.8576Z" stroke="#7747FF" stroke-width="2" stroke-linecap="round" stroke-linejoin="round"/>
</svg>
