<svg viewBox="0 0 16 16" fill="none" xmlns="http://www.w3.org/2000/svg">
<circle cx="8" cy="8" r="7.5" fill="#CC79FD" stroke="#B045EF"/>
<path d="M8.22869 11.8962C9.21552 11.8962 10.0726 11.6172 10.7276 11.0909C11.0581 10.8254 11.0124 10.343 10.7118 10.0655C10.3843 9.76318 9.88598 9.81554 9.52521 10.0454C9.17092 10.2711 8.76899 10.3855 8.32069 10.3855C7.66313 10.3855 7.10378 10.1548 6.70894 9.76124C6.31412 9.36766 6.08091 8.80835 6.08091 8.14576C6.08091 7.48317 6.31412 6.92385 6.70894 6.53028C7.10378 6.13668 7.66313 5.90598 8.32069 5.90598C8.76915 5.90598 9.17129 6.02052 9.52577 6.24383C9.8862 6.47088 10.3818 6.52042 10.7078 6.21947C11.0103 5.94027 11.0546 5.45446 10.7201 5.18966C10.0666 4.67226 9.21411 4.39531 8.23891 4.39531C5.98548 4.39531 4.30447 5.9587 4.30447 8.14576C4.30447 10.3327 5.98539 11.8962 8.22869 11.8962Z" fill="white" stroke="white" stroke-width="0.1"/>
<circle cx="8" cy="8" r="7.5" fill="#FFD233" stroke="#FEB643"/>
<path fill-rule="evenodd" clip-rule="evenodd" d="M8.26933 10.5568C8.70518 10.5568 9.11131 10.4733 9.51745 10.2437V9.2027H8.81395C8.43453 9.2027 8.12694 8.89512 8.12694 8.51569C8.12694 8.13627 8.43452 7.82868 8.81395 7.82868H9.51745V7.82629H10.9835V11.0682C10.2207 11.6735 9.17075 11.997 8.18018 11.997C6.00093 11.997 4.39621 10.4211 4.39621 8.21918C4.39621 6.01722 6.00093 4.44141 8.2099 4.44141C9.16844 4.44141 9.99823 4.71269 10.6366 5.22984C10.9323 5.46947 10.9028 5.90788 10.6299 6.17327C10.331 6.46392 9.85701 6.43124 9.50232 6.21217C9.13959 5.98813 8.73864 5.88155 8.28914 5.88155C6.94197 5.88155 6.02074 6.83122 6.02074 8.21918C6.02074 9.58628 6.94197 10.5568 8.26933 10.5568Z" fill="white"/>
</svg>
