<svg viewBox="0 0 14 15" fill="none" xmlns="http://www.w3.org/2000/svg">
<path d="M6.49613 14.2061C6.80749 14.3877 7.19251 14.3877 7.50387 14.2061L12.5039 11.2894C12.8111 11.1102 13 10.7813 13 10.4256V4.57437C13 4.2187 12.8111 3.8898 12.5039 3.71059L7.50389 0.793925C7.19252 0.612297 6.80751 0.612296 6.49614 0.793924L1.49613 3.71059C1.18891 3.8898 1 4.2187 1 4.57437V10.4256C1 10.7813 1.18891 11.1102 1.49613 11.2894L6.49613 14.2061Z" fill="url(#paint0_linear_2493_225524)"/>
<path d="M4.94658 6.35163L4.03042 5.95081C3.63353 5.77717 3.21868 6.15603 3.35567 6.567L4.38604 9.65811C4.4541 9.86229 4.64516 10 4.86038 10H7H9.13962C9.35484 10 9.5459 9.86229 9.61396 9.65811L10.6443 6.567C10.7813 6.15603 10.3665 5.77717 9.96958 5.95081L9.05342 6.35163C8.85193 6.43978 8.61651 6.38592 8.47338 6.21895L7.37963 4.9429C7.18008 4.71009 6.81992 4.71009 6.62037 4.9429L5.52662 6.21895C5.38349 6.38592 5.14807 6.43978 4.94658 6.35163Z" fill="white"/>
<defs>
<linearGradient id="paint0_linear_2493_225524" x1="6.21905" y1="41.0192" x2="30.5032" y2="30.0664" gradientUnits="userSpaceOnUse">
<stop stop-color="#FFE924"/>
<stop offset="0.255208" stop-color="#FF4A4D"/>
<stop offset="0.52667" stop-color="#B238FF"/>
<stop offset="0.729167" stop-color="#3D81FF"/>
<stop offset="1" stop-color="#41FFD2"/>
</linearGradient>
</defs>
</svg>
