<svg viewBox="0 0 32 23" fill="none" xmlns="http://www.w3.org/2000/svg">
<path d="M27.2325 2.84064C27.2325 2.84064 24.0232 0.2749 20.279 0L19.9224 0.733068C23.31 1.55777 24.9147 2.84064 26.5193 4.30677C23.6666 2.84064 20.9031 1.46614 16 1.46614C11.0969 1.46614 8.42244 2.84064 5.56973 4.30677C7.17438 2.749 9.04647 1.46614 12.1666 0.733068L11.81 0C7.88756 0.366534 4.85655 2.84064 4.85655 2.84064C4.85655 2.84064 1.29066 8.24701 0.666626 18.6932C4.23252 23 9.75965 23 9.75965 23L10.9186 21.4422C8.95732 20.7092 6.81779 19.5179 4.85655 17.2271C7.08523 18.9681 10.562 20.8008 16 20.8008C21.4379 20.8008 24.9147 18.9681 27.1434 17.2271C25.2713 19.4263 23.0426 20.7092 21.0814 21.4422L22.2403 23C22.2403 23 27.6783 23 31.3333 18.6932C30.7984 8.24701 27.2325 2.84064 27.2325 2.84064ZM11.5426 15.761C10.2054 15.761 9.13562 14.4781 9.13562 12.9203C9.13562 11.3625 10.2054 10.0797 11.5426 10.0797C12.8798 10.0797 13.9496 11.3625 13.9496 12.9203C13.9496 14.4781 12.8798 15.761 11.5426 15.761ZM20.5465 15.761C19.2093 15.761 18.1395 14.4781 18.1395 12.9203C18.1395 11.3625 19.2093 10.0797 20.5465 10.0797C21.8837 10.0797 22.9534 11.3625 22.9534 12.9203C22.9534 14.4781 21.9728 15.761 20.5465 15.761Z" fill="#8C9EFF"/>
</svg>
