<svg viewBox="0 0 20 20" fill="none" xmlns="http://www.w3.org/2000/svg">
<path d="M1.08838 14.6738L9.55929 18.9093C9.64753 18.9975 9.73577 18.9975 9.82401 18.9975C9.91225 18.9975 9.91225 18.9975 10.0005 18.9975C10.0887 18.9975 10.0887 18.9975 10.2652 18.9093L18.7361 14.6738" stroke="white" stroke-width="1.5" stroke-linecap="round" stroke-linejoin="round"/>
<path d="M5.05898 8.32049L1.08824 10.35L9.55915 14.5854C9.64739 14.6737 9.73563 14.6737 9.82387 14.6737C9.91211 14.6737 9.91211 14.6737 10.0003 14.6737C10.0886 14.6737 10.0886 14.6737 10.2651 14.5854L18.736 10.35L14.324 8.14401M5.3237 3.82031L1 5.93804L9.47091 10.1735C9.55915 10.2617 9.64739 10.2617 9.73563 10.2617C9.82387 10.2617 9.82387 10.2617 9.91211 10.2617C10.0003 10.2617 10.0003 10.2617 10.1768 10.1735L18.6477 5.93804L14.5005 3.90855" stroke="white" stroke-width="1.5" stroke-linecap="round" stroke-linejoin="round"/>
<path d="M7.70605 1L12.118 5.41193" stroke="white" stroke-width="1.5" stroke-miterlimit="10" stroke-linecap="round"/>
<path d="M12.118 1L7.70605 5.41193" stroke="white" stroke-width="1.5" stroke-miterlimit="10" stroke-linecap="round"/>
</svg>
