<svg viewBox="0 0 20 20" fill="none" xmlns="http://www.w3.org/2000/svg">
<path d="M1.08838 14.6758L9.55929 18.9112C9.64753 18.9995 9.73577 18.9995 9.82401 18.9995C9.91225 18.9995 9.91225 18.9995 10.0005 18.9995C10.0887 18.9995 10.0887 18.9995 10.2652 18.9112L18.7361 14.6758" stroke="#8083A3" stroke-width="1.5" stroke-linecap="round" stroke-linejoin="round"/>
<path d="M5.05898 8.32146L1.08824 10.351L9.55915 14.5864C9.64739 14.6746 9.73563 14.6746 9.82387 14.6746C9.91211 14.6746 9.91211 14.6746 10.0003 14.6746C10.0886 14.6746 10.0886 14.6746 10.2651 14.5864L18.736 10.351L14.324 8.14498M5.3237 3.82129L1 5.93902L9.47091 10.1745C9.55915 10.2627 9.64739 10.2627 9.73563 10.2627C9.82387 10.2627 9.82387 10.2627 9.91211 10.2627C10.0003 10.2627 10.0003 10.2627 10.1768 10.1745L18.6477 5.93902L14.5005 3.90953" stroke="#8083A3" stroke-width="1.5" stroke-linecap="round" stroke-linejoin="round"/>
<path d="M7.7063 1L12.1182 5.41193" stroke="#8083A3" stroke-width="1.5" stroke-miterlimit="10" stroke-linecap="round"/>
<path d="M12.1182 1L7.7063 5.41193" stroke="#8083A3" stroke-width="1.5" stroke-miterlimit="10" stroke-linecap="round"/>
</svg>
