<svg viewBox="0 0 19 16" fill="none" xmlns="http://www.w3.org/2000/svg">
<path d="M1.94444 9C2.46605 9 2.88889 8.55228 2.88889 8C2.88889 7.44771 2.46605 7 1.94444 7C1.42284 7 1 7.44771 1 8C1 8.55228 1.42284 9 1.94444 9Z" fill="#7747FF"/>
<path d="M1.94444 3C2.46605 3 2.88889 2.55228 2.88889 2C2.88889 1.44772 2.46605 1 1.94444 1C1.42284 1 1 1.44772 1 2C1 2.55228 1.42284 3 1.94444 3Z" fill="#7747FF"/>
<path d="M1.94444 15C2.46605 15 2.88889 14.5523 2.88889 14C2.88889 13.4477 2.46605 13 1.94444 13C1.42284 13 1 13.4477 1 14C1 14.5523 1.42284 15 1.94444 15Z" fill="#7747FF"/>
<path d="M18 8L6.66667 8M18 2L6.66667 2M18 14L6.66667 14M2.88889 8C2.88889 8.55228 2.46605 9 1.94444 9C1.42284 9 1 8.55228 1 8C1 7.44772 1.42284 7 1.94444 7C2.46605 7 2.88889 7.44772 2.88889 8ZM2.88889 2C2.88889 2.55228 2.46605 3 1.94444 3C1.42284 3 1 2.55228 1 2C1 1.44772 1.42284 1 1.94444 1C2.46605 1 2.88889 1.44772 2.88889 2ZM2.88889 14C2.88889 14.5523 2.46605 15 1.94444 15C1.42284 15 1 14.5523 1 14C1 13.4477 1.42284 13 1.94444 13C2.46605 13 2.88889 13.4477 2.88889 14Z" stroke="#696868" stroke-width="2" stroke-linecap="round" stroke-linejoin="round"/>
</svg>
