<svg viewBox="0 0 20 20" fill="none" xmlns="http://www.w3.org/2000/svg">
<path fill-rule="evenodd" clip-rule="evenodd" d="M20 10.2271C20.0009 9.54095 19.9388 8.85614 19.8145 8.18091H10.2014V12.049H15.6934C15.5794 12.6602 15.3402 13.2425 14.9903 13.7606C14.6403 14.2787 14.1869 14.722 13.6573 15.0636V17.5733H16.9546C18.8839 15.8323 19.9971 13.2681 19.9971 10.2252L20 10.2271Z" fill="#3E82F1"/>
<path fill-rule="evenodd" clip-rule="evenodd" d="M10.2042 19.999C12.9593 19.999 15.2693 19.1041 16.9574 17.577L13.6601 15.0673C12.7459 15.6674 11.5769 16.0226 10.2042 16.0226C7.54616 16.0226 5.2967 14.2628 4.49497 11.8992H1.08521V14.4908C1.9346 16.1472 3.23724 17.5395 4.84757 18.5122C6.4579 19.485 8.31251 19.9997 10.2042 19.999Z" fill="#32A753"/>
<path fill-rule="evenodd" clip-rule="evenodd" d="M4.49502 11.8993C4.06819 10.6673 4.06819 9.33183 4.49502 8.09992V5.5083H1.08526C0.371616 6.90217 0 8.44011 0 9.99959C0 11.5591 0.371616 13.097 1.08526 14.4909L4.49502 11.8993Z" fill="#F9BB00"/>
<path fill-rule="evenodd" clip-rule="evenodd" d="M10.2042 3.97645C11.7029 3.97645 13.0477 4.48139 14.1052 5.47244L17.0314 2.60386C15.2645 0.990111 12.9545 6.91801e-07 10.2061 6.91801e-07C8.31445 -0.000688832 6.45986 0.514076 4.84952 1.48679C3.23919 2.4595 1.93655 3.85184 1.08716 5.50824L4.49692 8.09986C5.29865 5.73622 7.5481 3.97645 10.2061 3.97645H10.2042Z" fill="#E74133"/>
</svg>
