<svg viewBox="0 0 19 14" fill="none" xmlns="http://www.w3.org/2000/svg">
<path d="M9.60557 5.91111C8.24302 5.91111 7.16733 4.82778 7.16733 3.45556C7.16733 2.08333 8.24302 1 9.60557 1C10.9681 1 12.0438 2.08333 12.0438 3.45556C12.0438 4.75556 10.9681 5.91111 9.60557 5.91111Z" stroke="#F63C78" stroke-width="1.5" stroke-miterlimit="10"/>
<path d="M12.259 12.8444H7.02391C7.02391 12.8444 7.02391 12.8444 6.9522 12.8444C6.01993 12.7 5.37451 11.9056 5.37451 10.9667V10.1722C5.37451 8.87223 5.94822 7.64445 6.9522 6.85C7.31077 6.56112 7.74105 6.34445 8.17132 6.2C8.6016 6.05556 9.1036 5.98334 9.60559 5.98334C10.5379 5.98334 11.4701 6.27223 12.1873 6.85C12.259 6.92223 12.3307 6.92223 12.3307 6.99445C13.263 7.78889 13.8367 9.01667 13.8367 10.2444V11.0389C13.8367 11.9056 13.1912 12.7 12.259 12.8444Z" stroke="#F63C78" stroke-width="1.5" stroke-miterlimit="10"/>
<path d="M5.51793 11.5444H2.14741C2.14741 11.5444 2.14741 11.5444 2.0757 11.5444C1.50199 11.4 1 10.8944 1 10.3167V9.81111C1 9.08889 1.28685 8.36667 1.78884 7.86111C2.29084 7.35555 3.00797 7.06667 3.7251 7.06667C4.65737 7.06667 5.51793 7.5 6.01992 8.29444" stroke="#F63C78" stroke-width="1.2" stroke-miterlimit="10"/>
<path d="M3.79681 6.99444C2.93625 6.99444 2.21912 6.27222 2.21912 5.40555C2.21912 4.53889 2.93625 3.81667 3.79681 3.81667C4.65736 3.81667 5.37449 4.53889 5.37449 5.40555C5.44621 6.27222 4.72908 6.99444 3.79681 6.99444Z" stroke="#F63C78" stroke-width="1.2" stroke-miterlimit="10"/>
<path d="M13.7649 11.5444H17.1354C17.1354 11.5444 17.1354 11.5444 17.2072 11.5444C17.7809 11.4 18.2829 10.8944 18.2829 10.3167V9.81111C18.2829 9.08889 17.996 8.36667 17.494 7.86111C16.992 7.35555 16.2749 7.06667 15.5578 7.06667C14.6255 7.06667 13.7649 7.5 13.2629 8.29444" stroke="#F63C78" stroke-width="1.2" stroke-miterlimit="10"/>
<path d="M13.8366 5.40555C13.8366 4.53889 14.5538 3.81667 15.4143 3.81667C16.2749 3.81667 16.992 4.53889 16.992 5.40555C16.992 6.27222 16.2749 6.99444 15.4143 6.99444C14.5538 6.99444 13.8366 6.27222 13.8366 5.40555Z" stroke="#F63C78" stroke-width="1.2" stroke-miterlimit="10"/>
</svg>
