<svg viewBox="0 0 14 14" fill="none" xmlns="http://www.w3.org/2000/svg">
<path d="M4.07632 13V6.4M1 7.6V11.8C1 12.4627 1.55093 13 2.23053 13H10.4912C11.4022 13 12.177 12.3518 12.3155 11.4737L12.9781 7.2737C13.1502 6.18334 12.2851 5.2 11.1538 5.2H8.99844C8.65864 5.2 8.38317 4.93137 8.38317 4.6V2.4795C8.38317 1.6624 7.70392 1 6.86603 1C6.66618 1 6.48507 1.11478 6.4039 1.29287L4.23871 6.04368C4.13996 6.26036 3.91962 6.4 3.67648 6.4H2.23053C1.55093 6.4 1 6.93726 1 7.6Z" stroke="#07A6CA" stroke-width="1.5" stroke-linecap="round" stroke-linejoin="round"/>
</svg>
