<svg viewBox="0 0 16 17" fill="none" xmlns="http://www.w3.org/2000/svg">
<path d="M4.9358 7.31055L0.945801 9.27055L7.6658 12.6305C7.7358 12.7005 7.8058 12.7005 7.8758 12.7005C7.9458 12.7005 7.9458 12.7005 8.0158 12.7005C8.0858 12.7005 8.0858 12.7005 8.2258 12.6305L14.9458 9.27055L11.0258 7.31055" stroke="white" stroke-width="1.5" stroke-linecap="round" stroke-linejoin="round"/>
<path d="M7.94584 8.92C9.99482 8.92 11.6558 7.25898 11.6558 5.21C11.6558 3.16102 9.99482 1.5 7.94584 1.5C5.89686 1.5 4.23584 3.16102 4.23584 5.21C4.23584 7.25898 5.89686 8.92 7.94584 8.92Z" stroke="white" stroke-width="1.5" stroke-linecap="round" stroke-linejoin="round"/>
<path d="M0.945801 12.7695L7.6658 16.1295C7.7358 16.1995 7.8058 16.1995 7.8758 16.1995C7.9458 16.1995 7.9458 16.1995 8.0158 16.1995C8.0858 16.1995 8.0858 16.1995 8.2258 16.1295L14.9458 12.7695" stroke="white" stroke-width="1.5" stroke-linecap="round" stroke-linejoin="round"/>
</svg>
