<svg viewBox="0 0 16 17" fill="none" xmlns="http://www.w3.org/2000/svg">
<path d="M4.93592 7.31055L0.945923 9.27055L7.66592 12.6305C7.73592 12.7005 7.80592 12.7005 7.87592 12.7005C7.94592 12.7005 7.94592 12.7005 8.01592 12.7005C8.08592 12.7005 8.08592 12.7005 8.22592 12.6305L14.9459 9.27055L11.0259 7.31055" stroke="#696868" stroke-width="1.5" stroke-linecap="round" stroke-linejoin="round"/>
<path d="M7.9459 8.92C9.99488 8.92 11.6559 7.25898 11.6559 5.21C11.6559 3.16102 9.99488 1.5 7.9459 1.5C5.89692 1.5 4.2359 3.16102 4.2359 5.21C4.2359 7.25898 5.89692 8.92 7.9459 8.92Z" stroke="#696868" stroke-width="1.5" stroke-linecap="round" stroke-linejoin="round"/>
<path d="M0.945923 12.7695L7.66592 16.1295C7.73592 16.1995 7.80592 16.1995 7.87592 16.1995C7.94592 16.1995 7.94592 16.1995 8.01592 16.1995C8.08592 16.1995 8.08592 16.1995 8.22592 16.1295L14.9459 12.7695" stroke="#696868" stroke-width="1.5" stroke-linecap="round" stroke-linejoin="round"/>
</svg>
