<svg viewBox="0 0 74 74" fill="none" xmlns="http://www.w3.org/2000/svg">
<circle cx="37" cy="37" r="36.5" fill="white" stroke="#E6E5E5"/>
<path d="M32.7 35.2002L27 38.0002L36.6 42.8002C36.7 42.9002 36.8 42.9002 36.9 42.9002C37 42.9002 37 42.9002 37.1 42.9002C37.2 42.9002 37.2 42.9002 37.4 42.8002L47 38.0002L41.4 35.2002" fill="#7747FF"/>
<path d="M32.7 35.2002L27 38.0002L36.6 42.8002C36.7 42.9002 36.8 42.9002 36.9 42.9002C37 42.9002 37 42.9002 37.1 42.9002C37.2 42.9002 37.2 42.9002 37.4 42.8002L47 38.0002L41.4 35.2002" stroke="#7747FF" stroke-width="2.5" stroke-linecap="round" stroke-linejoin="round"/>
<path d="M36.9992 37.5004C39.9263 37.5004 42.2992 35.1275 42.2992 32.2004C42.2992 29.2733 39.9263 26.9004 36.9992 26.9004C34.0721 26.9004 31.6992 29.2733 31.6992 32.2004C31.6992 35.1275 34.0721 37.5004 36.9992 37.5004Z" fill="white" stroke="#7747FF" stroke-width="2.5" stroke-linecap="round" stroke-linejoin="round"/>
<path d="M27 43L36.6 47.8C36.7 47.9 36.8 47.9 36.9 47.9C37 47.9 37 47.9 37.1 47.9C37.2 47.9 37.2 47.9 37.4 47.8L47 43" stroke="#7747FF" stroke-width="2.5" stroke-linecap="round" stroke-linejoin="round"/>
</svg>
