<svg viewBox="0 0 18 19" fill="none" xmlns="http://www.w3.org/2000/svg">
<path d="M5.56 7.63965L1 9.87965L8.68 13.7196C8.76 13.7996 8.84 13.7996 8.92 13.7996C9 13.7996 9 13.7996 9.08 13.7996C9.16 13.7996 9.16 13.7996 9.32 13.7196L17 9.87965L12.52 7.63965" stroke="white" stroke-width="1.5" stroke-linecap="round" stroke-linejoin="round"/>
<path d="M9.00001 9.48C11.3417 9.48 13.24 7.58169 13.24 5.24C13.24 2.89831 11.3417 1 9.00001 1C6.65832 1 4.76001 2.89831 4.76001 5.24C4.76001 7.58169 6.65832 9.48 9.00001 9.48Z" stroke="white" stroke-width="1.5" stroke-linecap="round" stroke-linejoin="round"/>
<path d="M1 13.8799L8.68 17.7199C8.76 17.7999 8.84 17.7999 8.92 17.7999C9 17.7999 9 17.7999 9.08 17.7999C9.16 17.7999 9.16 17.7999 9.32 17.7199L17 13.8799" stroke="white" stroke-width="1.5" stroke-linecap="round" stroke-linejoin="round"/>
</svg>
