<svg viewBox="0 0 16 16" fill="none" xmlns="http://www.w3.org/2000/svg">
<path d="M4.93459 0.598145C2.99067 1.42057 1.42057 2.99067 0.598145 4.93459L8.00001 8.00001L4.93459 0.598145Z" fill="#FF8E78"/>
<path d="M11.0654 0.598131C10.1184 0.224299 9.09656 0 7.99999 0C6.90342 0 5.88161 0.224299 4.93457 0.598131L7.99999 8L11.0654 0.598131Z" fill="#F46138"/>
<path d="M0.598131 4.93457C0.224299 5.88161 0 6.92834 0 7.99999C0 9.07164 0.224299 10.1184 0.598131 11.0654L8 7.99999L0.598131 4.93457Z" fill="#F2795C"/>
<path d="M15.4019 4.93459C14.5794 2.99067 13.0093 1.42057 11.0654 0.598145L8 8.00001L15.4019 4.93459Z" fill="#E05336"/>
<path d="M11.0654 15.4019C13.0093 14.5794 14.5794 13.0343 15.4019 11.0654L8 8L11.0654 15.4019Z" fill="#D64A29"/>
<path d="M15.4019 4.93457L8 7.99999L15.4019 11.0654C15.8006 10.1184 16 9.09656 16 7.99999C16 6.90342 15.7757 5.88161 15.4019 4.93457Z" fill="#F2795C"/>
<path d="M4.93457 15.4019C5.88161 15.8006 6.90342 16 7.99999 16C9.09656 16 10.1184 15.7757 11.0654 15.4019L7.99999 8L4.93457 15.4019Z" fill="#F46138"/>
<path d="M0.598145 11.0654C1.42057 13.0093 2.96575 14.5794 4.93459 15.4019L8.00001 8L0.598145 11.0654Z" fill="#E05336"/>
<path d="M6.2803 12.1371L3.86285 9.71967V6.28042L6.2803 3.86298H9.71955L12.137 6.28042V9.71967L9.71955 12.1371H6.2803Z" fill="#F46138"/>
</svg>
