<svg viewBox="0 0 18 18" fill="none" xmlns="http://www.w3.org/2000/svg">
<path d="M3.4 10.7725C1.88 11.4125 1 12.3725 1 13.3325C1 15.3325 4.6 16.9325 9 16.9325C13.4 16.9325 17 15.3325 17 13.3325C17 12.2925 16.12 11.4125 14.6 10.7725" stroke="#7747FF" stroke-width="1.5" stroke-linecap="round" stroke-linejoin="round"/>
<path d="M13.96 11.8122C13.96 12.2922 13.56 12.6922 13.08 12.6922H9.79996C9.31996 12.6922 8.59996 12.6922 8.11996 12.6922H4.83996C4.35996 12.6922 3.95996 12.2922 3.95996 11.8122V10.2122C3.95996 9.73219 3.95996 9.01219 3.95996 8.53219V5.17219C3.95996 4.69219 4.27996 4.13219 4.67996 3.81219L8.27996 1.17219C8.67996 0.932187 9.23996 0.932187 9.63996 1.17219L13.24 3.81219C13.64 4.05219 13.96 4.69219 13.96 5.17219V8.45219C13.96 8.93219 13.96 9.65219 13.96 10.1322V11.8122V11.8122Z" stroke="#7747FF" stroke-width="1.5" stroke-linecap="round" stroke-linejoin="round"/>
<path d="M10.5999 9.89199C10.5999 9.01199 9.8799 8.29199 8.9999 8.29199C8.1199 8.29199 7.3999 9.01199 7.3999 9.89199V12.612H10.5999V9.89199Z" fill="#7747FF"/>
</svg>
