<svg viewBox="0 0 18 18" fill="none" xmlns="http://www.w3.org/2000/svg">
<path d="M3.4 10.7803C1.88 11.4203 1 12.3803 1 13.3403C1 15.3403 4.6 16.9403 9 16.9403C13.4 16.9403 17 15.3403 17 13.3403C17 12.3003 16.12 11.4203 14.6 10.7803" stroke="#696868" stroke-width="1.5" stroke-linecap="round" stroke-linejoin="round"/>
<path d="M13.96 11.82C13.96 12.3 13.56 12.7 13.08 12.7H9.79996C9.31996 12.7 8.59996 12.7 8.11996 12.7H4.83996C4.35996 12.7 3.95996 12.3 3.95996 11.82V10.22C3.95996 9.74 3.95996 9.02 3.95996 8.54V5.18C3.95996 4.7 4.27996 4.14 4.67996 3.82L8.27996 1.18C8.67996 0.94 9.23996 0.94 9.63996 1.18L13.24 3.82C13.64 4.06 13.96 4.7 13.96 5.18V8.46C13.96 8.94 13.96 9.66 13.96 10.14V11.82V11.82Z" stroke="#696868" stroke-width="1.5" stroke-linecap="round" stroke-linejoin="round"/>
<path d="M10.5999 9.8998C10.5999 9.0198 9.8799 8.2998 8.9999 8.2998C8.1199 8.2998 7.3999 9.0198 7.3999 9.8998V12.6198H10.5999V9.8998Z" fill="#696868"/>
</svg>
