<svg viewBox="0 0 42 42" fill="none" xmlns="http://www.w3.org/2000/svg">
<circle cx="21" cy="21" r="20.5" fill="white" stroke="#ECECEC"/>
<path d="M12.4598 23.6001L13.3267 24.0986L12.4598 23.6001ZM17.8944 14.1501L17.0275 13.6516L17.8944 14.1501ZM24.1056 14.1501L24.9725 13.6516L24.1056 14.1501ZM29.5402 23.6001L30.407 23.1015L29.5402 23.6001ZM20.0881 11.1945L20.4962 12.1075L20.0881 11.1945ZM21.9115 11.1945L21.5034 12.1075V12.1075L21.9115 11.1945ZM11.9192 28.5703L11.3299 29.3782H11.3299L11.9192 28.5703ZM11.0074 26.9851L12.002 26.881L11.0074 26.9851ZM30.0808 28.5703L30.6701 29.3782L30.0808 28.5703ZM30.9926 26.9851L31.9871 27.0893L30.9926 26.9851ZM21.0557 24.5H22.0557C22.0557 23.9477 21.608 23.5 21.0557 23.5V24.5ZM21.0557 24.6125L21.0555 25.6125C21.3207 25.6126 21.5752 25.5073 21.7628 25.3197C21.9503 25.1322 22.0557 24.8778 22.0557 24.6125H21.0557ZM20.9441 24.6125H19.9441C19.9441 25.1647 20.3917 25.6123 20.9439 25.6125L20.9441 24.6125ZM20.9441 24.5V23.5C20.3918 23.5 19.9441 23.9477 19.9441 24.5H20.9441ZM21.9999 16.625C21.9999 16.0728 21.5522 15.625 20.9999 15.625C20.4476 15.625 19.9999 16.0728 19.9999 16.625H21.9999ZM19.9999 21.125C19.9999 21.6773 20.4476 22.125 20.9999 22.125C21.5522 22.125 21.9999 21.6773 21.9999 21.125H19.9999ZM26.4346 28H15.5655V30H26.4346V28ZM13.3267 24.0986L18.7613 14.6486L17.0275 13.6516L11.593 23.1015L13.3267 24.0986ZM23.2387 14.6486L28.6733 24.0986L30.407 23.1015L24.9725 13.6516L23.2387 14.6486ZM18.7613 14.6486C19.2807 13.7455 19.6365 13.1286 19.9418 12.6947C20.2503 12.2563 20.4156 12.1435 20.4962 12.1075L19.6801 10.2816C19.0955 10.5429 18.6734 11.0218 18.3061 11.5438C17.9356 12.0704 17.5272 12.7827 17.0275 13.6516L18.7613 14.6486ZM24.9725 13.6516C24.4727 12.7826 24.0642 12.0703 23.6936 11.5437C23.3262 11.0217 22.9041 10.5428 22.3196 10.2816L21.5034 12.1075C21.5842 12.1436 21.7495 12.2564 22.0581 12.6949C22.3635 13.1287 22.7194 13.7456 23.2387 14.6486L24.9725 13.6516ZM20.4962 12.1075C20.8168 11.9642 21.1828 11.9642 21.5034 12.1075L22.3196 10.2816C21.4796 9.90614 20.52 9.90614 19.6801 10.2816L20.4962 12.1075ZM15.5655 28C14.5266 28 13.8171 27.999 13.2907 27.9505C12.7593 27.9016 12.58 27.8145 12.5085 27.7624L11.3299 29.3782C11.8476 29.7558 12.4723 29.8836 13.1073 29.9421C13.7472 30.001 14.5662 30 15.5655 30V28ZM11.593 23.1015C11.0932 23.9706 10.6831 24.6817 10.4142 25.2671C10.1474 25.8479 9.94625 26.4529 10.0129 27.0893L12.002 26.881C11.9925 26.7903 12.008 26.5889 12.2317 26.1019C12.4532 25.6195 12.8074 25.0017 13.3267 24.0986L11.593 23.1015ZM12.5085 27.7624C12.2237 27.5547 12.039 27.2345 12.002 26.881L10.0129 27.0893C10.1087 28.0042 10.587 28.8363 11.3299 29.3782L12.5085 27.7624ZM26.4346 30C27.4339 30 28.2529 30.001 28.8928 29.9421C29.5277 29.8836 30.1524 29.7558 30.6701 29.3782L29.4915 27.7624C29.42 27.8145 29.2407 27.9016 28.7094 27.9505C28.183 27.999 27.4735 28 26.4346 28V30ZM28.6733 24.0986C29.1926 25.0017 29.5468 25.6195 29.7684 26.1019C29.992 26.5889 30.0075 26.7903 29.998 26.881L31.9871 27.0893C32.0537 26.4529 31.8526 25.8479 31.5858 25.2671C31.3169 24.6817 30.9068 23.9706 30.407 23.1015L28.6733 24.0986ZM30.6701 29.3782C31.413 28.8363 31.8913 28.0042 31.9871 27.0893L29.998 26.881C29.961 27.2345 29.7763 27.5546 29.4915 27.7624L30.6701 29.3782ZM20.0557 24.5V24.6125H22.0557V24.5H20.0557ZM21.056 23.6125L20.9444 23.6125L20.9439 25.6125L21.0555 25.6125L21.056 23.6125ZM21.9441 24.6125V24.5H19.9441V24.6125H21.9441ZM20.9441 25.5H21.0557V23.5H20.9441V25.5ZM19.9999 16.625V21.125H21.9999V16.625H19.9999Z" fill="#FF72D7"/>
</svg>
