<svg width="154" height="163" viewBox="0 0 154 163" fill="none" xmlns="http://www.w3.org/2000/svg">
<path d="M0 115.413L73.8151 70.848L154 112.392L72.691 156.58L0 115.413Z" fill="url(#paint0_linear_2178_127909)"/>
<path d="M72.691 163V156.58L0 115.413V121.078L72.691 163Z" fill="url(#paint1_linear_2178_127909)"/>
<path d="M154 112.392L72.691 156.58V163L154 117.302V112.392Z" fill="url(#paint2_linear_2178_127909)"/>
<g opacity="0.3" filter="url(#filter0_f_2178_127909)">
<path d="M143.111 143.361L73.0909 142.541L125.199 112.176H143.111V143.361Z" fill="url(#paint3_linear_2178_127909)"/>
</g>
<path d="M126.828 64.5781L74.403 34.4994C74.0948 34.3226 73.7159 34.3226 73.4077 34.4994L20.9831 64.5781L73.0912 92.4804L126.828 64.5781Z" fill="url(#paint4_linear_2178_127909)"/>
<ellipse cx="73.9053" cy="87.5565" rx="29.3108" ry="29.5436" fill="url(#paint5_radial_2178_127909)"/>
<path d="M73.0909 92.4804L20.9829 64.5781V113.227C20.9829 113.591 21.181 113.927 21.5001 114.103L73.0909 142.54V92.4804Z" fill="url(#paint6_linear_2178_127909)"/>
<path d="M73.0909 92.4804L126.827 64.5781V113.218C126.827 113.587 126.624 113.926 126.299 114.1L73.0909 142.54V92.4804Z" fill="url(#paint7_linear_2178_127909)"/>
<g filter="url(#filter1_f_2178_127909)">
<ellipse cx="73.9053" cy="87.5565" rx="29.3108" ry="29.5436" fill="url(#paint8_linear_2178_127909)"/>
</g>
<path d="M68.1279 24.0258C68.1279 24.0258 64.315 31.6659 71.9408 42.0379C79.5667 52.4099 75.4781 64.2636 71.3436 68.7551" stroke="#F9124B" stroke-width="0.5" stroke-miterlimit="10"/>
<path d="M91.0513 35.3235C91.0513 35.3235 94.267 49.6313 79.9342 55.7897C65.6013 61.9481 63.58 66.671 63.58 66.671" stroke="#F9124B" stroke-width="0.5" stroke-miterlimit="10"/>
<path d="M68.2198 24.3497C67.5307 23.7014 66.7957 23.0995 66.1066 22.4975C64.4988 21.1547 62.8909 19.7193 61.4668 18.0524C60.0427 16.3391 58.2511 13.5609 57.7917 10.0418C57.5161 7.95817 57.8836 5.7819 58.8943 3.97606C59.9049 2.12391 61.5128 0.827408 63.3962 0.410675C64.315 0.179157 65.2797 0.179157 66.2445 0.318068C68.817 0.781104 70.8843 2.63325 71.6652 5.13365C73.2731 3.04998 75.8456 2.07761 78.4182 2.54064C79.3829 2.72586 80.2558 3.09629 81.0827 3.60563C82.6905 4.67061 83.7471 6.43015 84.0687 8.51381C84.3903 10.5512 84.0227 12.6811 83.0121 14.5796C81.4042 17.7282 78.7398 19.7193 76.8104 20.7843C74.9269 21.8493 72.9056 22.5901 70.9761 23.331C70.1033 23.6551 69.2305 23.9792 68.3576 24.3497L68.2658 24.396L68.2198 24.3497Z" fill="#E6B5C1"/>
<path d="M81.0368 3.69843C78.0968 1.75368 73.9623 2.21672 71.6653 5.41167C70.5628 1.56847 66.7958 -0.28368 63.3964 0.503482C59.4916 1.42955 57.3325 5.7821 57.8837 10.042C58.2972 13.0981 59.7213 15.83 61.5588 18.0063C63.5801 20.414 66.0149 22.2199 68.3118 24.3036C71.16 23.146 74.1001 22.3125 76.7645 20.7382C79.1993 19.3491 81.5422 17.2654 82.9203 14.5335C84.8957 10.7829 84.3444 5.92101 81.0368 3.69843Z" fill="url(#paint9_linear_2178_127909)"/>
<path d="M68.2199 24.3496C67.7605 23.7477 67.3011 23.192 66.8417 22.6364C65.831 21.3862 64.7285 20.0897 63.8557 18.5154C62.9369 16.8947 61.8344 14.2554 61.7425 10.7826C61.6506 8.69898 62.0641 6.52271 62.845 4.71687C63.6719 2.81842 64.8204 1.47562 66.1526 0.919972C66.8417 0.64215 67.4848 0.549543 68.1739 0.688454C69.9196 1.01258 71.2518 2.67951 71.7112 5.0873C72.9515 2.95733 74.7432 1.89235 76.5348 2.17017C77.2238 2.30908 77.8211 2.5869 78.3264 3.09624C79.383 4.06862 80.0261 5.73555 80.1639 7.81921C80.2558 9.81027 79.8883 11.9402 79.1073 13.885C77.8211 17.0799 75.8457 19.1636 74.4675 20.3675C73.0894 21.5251 71.6653 22.4049 70.2412 23.192C69.644 23.5624 69.0008 23.9329 68.3577 24.3496L68.2658 24.4422L68.2199 24.3496Z" fill="#E6B5C1"/>
<path d="M78.2346 3.18903C76.3051 1.42949 73.411 2.07775 71.6194 5.3653C71.0681 1.66101 68.5874 -0.00591797 66.1527 1.01276C63.3963 2.17035 61.6507 6.5692 61.7885 10.7828C61.8804 13.7463 62.7532 16.3856 63.9017 18.4692C65.142 20.7381 66.7958 22.405 68.2199 24.3035C70.2412 23.007 72.3544 21.9883 74.2838 20.3214C76.0754 18.7934 77.7752 16.6171 78.8777 13.8389C80.5315 9.99567 80.4396 5.22639 78.2346 3.18903Z" fill="url(#paint10_linear_2178_127909)"/>
<path d="M71.6194 5.3653C71.0681 1.66101 68.5874 -0.00591797 66.1527 1.01276C63.3963 2.17035 61.6507 6.5692 61.7885 10.7828C61.8804 13.7463 62.7532 16.3856 63.9017 18.4692C65.142 20.7381 66.7958 22.405 68.2199 24.3035L71.6194 5.3653Z" fill="url(#paint11_linear_2178_127909)"/>
<path d="M91.1433 40.1393C90.3164 39.6763 89.4436 39.2595 88.6167 38.8428C86.7332 37.9167 84.8038 36.9443 83.0581 35.6941C81.2665 34.3976 78.8317 32.1288 77.5455 28.8412C76.7645 26.8502 76.6267 24.6739 77.132 22.6828C77.6833 20.6455 78.9236 19.0248 80.6234 18.0988C81.4962 17.6357 82.415 17.4042 83.3797 17.3116C85.9982 17.1264 88.4329 18.4229 89.8111 20.6455C90.8677 18.2377 93.1187 16.617 95.7372 16.4318C96.7019 16.3855 97.6666 16.4781 98.5854 16.8023C100.377 17.4505 101.847 18.8859 102.674 20.8307C103.455 22.7291 103.639 24.9054 103.133 26.9891C102.306 30.4155 100.239 33.0085 98.6313 34.5366C97.0694 36.0646 95.2778 37.2685 93.5781 38.4261C92.7971 38.9354 92.0162 39.491 91.2811 40.0467L91.2352 40.093L91.1433 40.1393Z" fill="#E6B5C1"/>
<path d="M98.5395 16.9414C95.2319 15.7838 91.2812 17.2192 89.8571 20.8772C87.9276 17.4507 83.7931 16.5246 80.7152 18.1916C77.178 20.0437 76.1214 24.813 77.6833 28.7951C78.7858 31.6196 80.8531 33.9348 83.15 35.6017C85.6766 37.4539 88.5248 38.6115 91.1893 40.0469C93.67 38.241 96.2885 36.713 98.5395 34.5368C100.561 32.592 102.306 29.999 103.041 27.0356C104.006 22.8682 102.306 18.3305 98.5395 16.9414Z" fill="url(#paint12_linear_2178_127909)"/>
<path d="M91.0975 40.1393C90.5003 39.6762 89.9031 39.2132 89.3518 38.7965C88.0655 37.8241 86.6874 36.8054 85.493 35.5089C84.2067 34.1661 82.5069 31.8509 81.5422 28.5634C80.945 26.5723 80.8072 24.3497 81.1288 22.405C81.4504 20.3676 82.2773 18.7933 83.4257 17.9135C84.0229 17.4968 84.6661 17.219 85.3092 17.1727C87.1008 17.0338 88.8006 18.3303 89.7653 20.5528C90.4544 18.1914 91.9244 16.7096 93.716 16.5707C94.4051 16.5244 95.0482 16.6633 95.6914 17.0338C96.9317 17.7283 97.9883 19.21 98.5855 21.1548C99.1827 23.0532 99.3205 25.2295 99.0449 27.3132C98.5396 30.7396 97.1614 33.24 96.1048 34.7681C95.0482 36.2498 93.8538 37.4074 92.7054 38.565C92.2 39.0743 91.6488 39.5836 91.1434 40.1393L91.0975 40.1856V40.1393Z" fill="#E6B5C1"/>
<path d="M95.7373 17.1726C93.4404 15.9224 90.7759 17.3115 89.8572 20.9232C88.4331 17.4504 85.6308 16.4781 83.5176 18.0061C81.1288 19.8119 80.4856 24.5349 81.6341 28.517C82.461 31.3878 83.9311 33.7493 85.5389 35.4626C87.3305 37.361 89.26 38.5649 91.1434 40.0929C92.7972 38.3334 94.5888 36.8517 96.0589 34.768C97.437 32.8696 98.5396 30.3229 98.999 27.3594C99.5962 23.1921 98.3558 18.608 95.7373 17.1726Z" fill="url(#paint13_linear_2178_127909)"/>
<path d="M89.8572 20.9233C88.4331 17.4505 85.6308 16.4781 83.5176 18.0061C81.1288 19.812 80.4856 24.5349 81.6341 28.5171C82.461 31.3879 83.9311 33.7494 85.5389 35.4626C87.3305 37.361 89.26 38.5649 91.1434 40.093L89.8572 20.9233Z" fill="url(#paint14_linear_2178_127909)"/>
<path d="M76.0294 57.5957L75.9375 57.2716C75.8456 57.0401 75.7078 56.7623 75.57 56.5307C75.1106 55.8362 74.0081 55.1416 73.0434 55.5121C72.7218 55.6047 72.4462 55.9288 72.584 56.2066C72.7218 56.4844 72.9974 56.6697 73.2731 56.8549C73.6865 57.0864 74.1918 57.2253 74.6512 57.3642C74.6512 57.3642 74.6512 57.3642 74.6972 57.3642C75.1106 57.4568 75.57 57.5494 76.0294 57.5957Z" stroke="#F9124B" stroke-width="0.5" stroke-miterlimit="10"/>
<path d="M76.0293 57.5956L76.3968 57.503C76.7184 57.4104 76.994 57.3641 77.3156 57.3641C78.2803 57.2715 79.5206 57.6419 79.7503 58.5217C79.8422 58.7995 79.7044 59.1699 79.3369 59.2625C79.0153 59.3551 78.6478 59.2625 78.3262 59.1236C77.8668 58.9847 77.4534 58.7069 77.0399 58.429C76.7184 58.1512 76.3509 57.8734 76.0293 57.5956Z" stroke="#F9124B" stroke-width="0.5" stroke-miterlimit="10"/>
<defs>
<filter id="filter0_f_2178_127909" x="71.5909" y="110.676" width="73.0201" height="34.1849" filterUnits="userSpaceOnUse" color-interpolation-filters="sRGB">
<feFlood flood-opacity="0" result="BackgroundImageFix"/>
<feBlend mode="normal" in="SourceGraphic" in2="BackgroundImageFix" result="shape"/>
<feGaussianBlur stdDeviation="0.75" result="effect1_foregroundBlur_2178_127909"/>
</filter>
<filter id="filter1_f_2178_127909" x="43.5945" y="57.0129" width="60.6216" height="61.0872" filterUnits="userSpaceOnUse" color-interpolation-filters="sRGB">
<feFlood flood-opacity="0" result="BackgroundImageFix"/>
<feBlend mode="normal" in="SourceGraphic" in2="BackgroundImageFix" result="shape"/>
<feGaussianBlur stdDeviation="0.5" result="effect1_foregroundBlur_2178_127909"/>
</filter>
<linearGradient id="paint0_linear_2178_127909" x1="75.8154" y1="156.58" x2="56.7706" y2="-133.72" gradientUnits="userSpaceOnUse">
<stop stop-color="#FFF7F7"/>
<stop offset="1" stop-color="#FFA6AE"/>
</linearGradient>
<linearGradient id="paint1_linear_2178_127909" x1="71.9416" y1="163" x2="-48.8563" y2="170.227" gradientUnits="userSpaceOnUse">
<stop stop-color="#FFE9E9"/>
<stop offset="1" stop-color="#FECACF"/>
</linearGradient>
<linearGradient id="paint2_linear_2178_127909" x1="74.9392" y1="166.399" x2="119.823" y2="56.165" gradientUnits="userSpaceOnUse">
<stop stop-color="#FFD3D5"/>
<stop offset="1" stop-color="#FFA6AE"/>
</linearGradient>
<linearGradient id="paint3_linear_2178_127909" x1="103.216" y1="125.307" x2="147.183" y2="126.922" gradientUnits="userSpaceOnUse">
<stop stop-color="#FF8895"/>
<stop offset="1" stop-color="#FFDDE0" stop-opacity="0"/>
</linearGradient>
<linearGradient id="paint4_linear_2178_127909" x1="74.7196" y1="92.4804" x2="71.8523" y2="43.4428" gradientUnits="userSpaceOnUse">
<stop stop-color="#FFC7C8"/>
<stop offset="1" stop-color="#FFA6AE"/>
</linearGradient>
<radialGradient id="paint5_radial_2178_127909" cx="0" cy="0" r="1" gradientUnits="userSpaceOnUse" gradientTransform="translate(73.9053 74.2619) scale(36.6385 23.7479)">
<stop stop-color="white"/>
<stop offset="1" stop-color="white" stop-opacity="0.6"/>
</radialGradient>
<linearGradient id="paint6_linear_2178_127909" x1="56.4599" y1="64.9584" x2="36.4673" y2="137.912" gradientUnits="userSpaceOnUse">
<stop stop-color="#FFC5C9"/>
<stop offset="1" stop-color="#FFE7E9"/>
</linearGradient>
<linearGradient id="paint7_linear_2178_127909" x1="120.653" y1="72.5831" x2="72.5038" y2="129.861" gradientUnits="userSpaceOnUse">
<stop stop-color="#FFD6DA"/>
<stop offset="1" stop-color="#FF9FAA"/>
</linearGradient>
<linearGradient id="paint8_linear_2178_127909" x1="72.2769" y1="87.5565" x2="72.2769" y2="122.845" gradientUnits="userSpaceOnUse">
<stop stop-color="white" stop-opacity="0"/>
<stop offset="1" stop-color="white" stop-opacity="0.45"/>
</linearGradient>
<linearGradient id="paint9_linear_2178_127909" x1="57.319" y1="10.577" x2="83.2928" y2="15.1707" gradientUnits="userSpaceOnUse">
<stop stop-color="#FFBFD2"/>
<stop offset="0.1882" stop-color="#FF93B6"/>
<stop offset="0.3968" stop-color="#FF689A"/>
<stop offset="0.5032" stop-color="#FF578F"/>
<stop offset="1" stop-color="#FFBFD2"/>
</linearGradient>
<linearGradient id="paint10_linear_2178_127909" x1="67.0838" y1="12.3315" x2="77.9077" y2="14.2458" gradientUnits="userSpaceOnUse">
<stop stop-color="#FFBFD2"/>
<stop offset="0.0356432" stop-color="#FF93B6"/>
<stop offset="0.0751558" stop-color="#FF689A"/>
<stop offset="0.095298" stop-color="#FF578F"/>
<stop offset="0.2517" stop-color="#FF6296"/>
<stop offset="0.526" stop-color="#FF7FA9"/>
<stop offset="0.8836" stop-color="#FFAEC7"/>
<stop offset="1" stop-color="#FFBFD2"/>
</linearGradient>
<linearGradient id="paint11_linear_2178_127909" x1="62.3335" y1="11.5973" x2="73.094" y2="13.2852" gradientUnits="userSpaceOnUse">
<stop stop-color="#FFBFD2"/>
<stop offset="0.5334" stop-color="#FFBFD2"/>
<stop offset="0.6123" stop-color="#FFBFD2"/>
<stop offset="0.6752" stop-color="#FFB7CD"/>
<stop offset="0.7744" stop-color="#FFA0BE"/>
<stop offset="0.8966" stop-color="#FF7BA6"/>
<stop offset="1" stop-color="#FF578F"/>
</linearGradient>
<linearGradient id="paint12_linear_2178_127909" x1="77.2226" y1="29.4582" x2="103.532" y2="27.6476" gradientUnits="userSpaceOnUse">
<stop stop-color="#FFBFD2"/>
<stop offset="0.1882" stop-color="#FF93B6"/>
<stop offset="0.3968" stop-color="#FF689A"/>
<stop offset="0.5032" stop-color="#FF578F"/>
<stop offset="1" stop-color="#FFBFD2"/>
</linearGradient>
<linearGradient id="paint13_linear_2178_127909" x1="87.1177" y1="28.7661" x2="98.0813" y2="28.0116" gradientUnits="userSpaceOnUse">
<stop stop-color="#FFBFD2"/>
<stop offset="0.0356432" stop-color="#FF93B6"/>
<stop offset="0.0751558" stop-color="#FF689A"/>
<stop offset="0.095298" stop-color="#FF578F"/>
<stop offset="0.2517" stop-color="#FF6296"/>
<stop offset="0.526" stop-color="#FF7FA9"/>
<stop offset="0.8836" stop-color="#FFAEC7"/>
<stop offset="1" stop-color="#FFBFD2"/>
</linearGradient>
<linearGradient id="paint14_linear_2178_127909" x1="82.3328" y1="29.2183" x2="93.1815" y2="28.2594" gradientUnits="userSpaceOnUse">
<stop stop-color="#FFBFD2"/>
<stop offset="0.5334" stop-color="#FFBFD2"/>
<stop offset="0.6123" stop-color="#FFBFD2"/>
<stop offset="0.6752" stop-color="#FFB7CD"/>
<stop offset="0.7744" stop-color="#FFA0BE"/>
<stop offset="0.8966" stop-color="#FF7BA6"/>
<stop offset="1" stop-color="#FF578F"/>
</linearGradient>
</defs>
</svg>
