<svg viewBox="0 0 18 18" fill="none" xmlns="http://www.w3.org/2000/svg">
<path d="M3.4 10.7798C1.88 11.4198 1 12.3798 1 13.3398C1 15.3398 4.6 16.9398 9 16.9398C13.4 16.9398 17 15.3398 17 13.3398C17 12.2998 16.12 11.4198 14.6 10.7798" stroke="#C3C5CE" stroke-width="1.5" stroke-linecap="round" stroke-linejoin="round"/>
<path d="M13.96 11.82C13.96 12.3 13.56 12.7 13.08 12.7H9.79996C9.31996 12.7 8.59996 12.7 8.11996 12.7H4.83996C4.35996 12.7 3.95996 12.3 3.95996 11.82V10.22C3.95996 9.74 3.95996 9.02 3.95996 8.54V5.18C3.95996 4.7 4.27996 4.14 4.67996 3.82L8.27996 1.18C8.67996 0.94 9.23996 0.94 9.63996 1.18L13.24 3.82C13.64 4.06 13.96 4.7 13.96 5.18V8.46C13.96 8.94 13.96 9.66 13.96 10.14V11.82V11.82Z" stroke="#C3C5CE" stroke-width="1.5" stroke-linecap="round" stroke-linejoin="round"/>
<path d="M10.6 9.90029C10.6 9.02029 9.87999 8.30029 8.99999 8.30029C8.11999 8.30029 7.39999 9.02029 7.39999 9.90029V12.6203H10.6V9.90029Z" fill="#C3C5CE"/>
</svg>
