<svg viewBox="0 0 26 20" fill="none" xmlns="http://www.w3.org/2000/svg">
<path d="M5.9 10.2996L8.9 12.0996L5.9 13.8996L2.9 12.0996L5.9 10.2996ZM5.9 8.59961L0 12.0996L5.9 15.5996L11.8 12.0996L5.9 8.59961Z" fill="#8083A3"/>
<path d="M12.6 14.3996L15.6 16.1996L12.6 17.9996L9.59995 16.1996L12.6 14.3996ZM12.6 12.5996L6.69995 16.0996L12.6 19.5996L18.5 16.0996L12.6 12.5996Z" fill="#8083A3"/>
<path d="M19.2999 10.2996L22.2999 12.0996L19.2999 13.8996L16.2999 12.0996L19.2999 10.2996ZM19.2999 8.59961L13.3999 12.0996L19.2999 15.5996L25.1999 12.0996L19.2999 8.59961Z" fill="#8083A3"/>
<path d="M19.6 6.79961L18.4 6.09961L12.6 9.49961L6.90001 6.09961L5.60001 6.79961L12.6 10.9996L19.6 6.79961Z" fill="#8083A3"/>
<path d="M12.6001 1.7L16.7001 4.1L12.6001 6.5L8.6001 4.2L12.6001 1.7ZM12.6001 0L5.6001 4.2L12.6001 8.4L19.6001 4.2L12.6001 0Z" fill="#8083A3"/>
</svg>
