<svg viewBox="0 0 97 24" fill="none" xmlns="http://www.w3.org/2000/svg">
<mask id="mask0_1342_104583" style="mask-type:alpha" maskUnits="userSpaceOnUse" x="2" y="0" width="14" height="13">
<path d="M8.13545 0.505186C6.90958 0.728297 5.79514 1.17452 4.755 1.91822C4.23493 2.25289 3.78916 2.66193 3.38054 3.10815C3.38054 3.14533 3.38054 3.14533 3.34339 3.14533C3.34339 3.14533 3.34339 3.14533 3.30624 3.18252C3.30624 3.2197 3.26909 3.2197 3.26909 3.25689C3.0462 3.59155 2.82332 3.92622 2.67473 4.26089C2.22895 5.19052 2.11751 6.15733 2.30325 7.16133C2.48899 8.05377 2.82332 8.83466 3.34339 9.61555C3.93775 10.5452 4.71786 11.3261 5.57226 12.0326C5.6094 12.0698 5.72085 12.1441 5.72085 12.1441C5.72085 12.1441 5.98088 11.921 6.12947 11.8095C7.16961 10.9542 8.32119 10.2477 9.58422 9.80147C10.4015 9.50399 11.2187 9.2437 11.9988 8.87185C12.6675 8.57436 13.299 8.2397 13.8934 7.75629C14.3763 7.34725 14.7849 6.82666 14.9335 6.19451C15.1564 5.33926 15.0821 4.52118 14.7849 3.70311C14.4506 2.81067 13.8934 2.10415 13.1133 1.50919C12.4446 0.988593 11.7016 0.653927 10.8472 0.505186C10.4386 0.39363 10.0671 0.356445 9.65851 0.356445C9.13845 0.356445 8.65552 0.39363 8.13545 0.505186Z" fill="white"/>
</mask>
<g mask="url(#mask0_1342_104583)">
<path d="M20.357 8.61098L5.83225 17.9816L-3.34326 3.77691L11.1815 -5.59375L20.357 8.61098Z" fill="url(#paint0_linear_1342_104583)"/>
</g>
<mask id="mask1_1342_104583" style="mask-type:alpha" maskUnits="userSpaceOnUse" x="4" y="11" width="12" height="13">
<path d="M4.93094 22.1841C5.07953 22.2956 5.26527 22.4072 5.41386 22.4816C5.63675 22.6303 5.89678 22.7419 6.11967 22.8534C6.71403 23.1509 7.34555 23.3368 8.01421 23.4856C8.60857 23.5971 9.20294 23.6715 9.7973 23.6343C10.0945 23.6343 10.3917 23.5971 10.6888 23.5599C11.2089 23.4856 11.729 23.2996 12.1748 23.0765C12.5834 22.8906 12.9549 22.6303 13.2892 22.3328C13.5492 22.1097 13.8093 21.8494 14.0322 21.5519C14.2922 21.2173 14.5151 20.8454 14.6637 20.4736C14.738 20.2504 14.8123 20.0273 14.8865 19.8042C14.9237 19.5811 14.9608 19.358 14.998 19.1349C15.0351 18.8374 14.998 18.5399 14.9608 18.2425C14.9237 17.8706 14.7751 17.5359 14.5894 17.2013C14.4779 16.9782 14.3293 16.7922 14.1436 16.6063C13.9207 16.346 13.6607 16.1601 13.4006 15.9742C13.1035 15.751 12.7691 15.5651 12.4348 15.4164C12.0262 15.2305 11.6547 15.0445 11.2461 14.8958C10.8746 14.747 10.5031 14.6355 10.1316 14.4868C9.46297 14.2265 8.79431 14.0033 8.1628 13.6315C7.60558 13.334 7.12266 12.9993 6.63974 12.6647C6.30541 12.4416 5.97108 12.1813 5.67389 11.8838C5.67389 11.8838 2.66492 16.0485 4.93094 22.1841Z" fill="white"/>
</mask>
<g mask="url(#mask1_1342_104583)">
<path d="M14.9339 12.0698H2.56372V23.8575H14.9339V12.0698Z" fill="url(#paint1_linear_1342_104583)"/>
</g>
<mask id="mask2_1342_104583" style="mask-type:alpha" maskUnits="userSpaceOnUse" x="0" y="2" width="6" height="21">
<path d="M3.3433 3.07103C2.93468 3.51725 2.60035 3.96347 2.26602 4.44688C1.93169 4.96747 1.6345 5.48806 1.37447 6.00866C1.15158 6.45488 0.965843 6.9011 0.817252 7.38451C0.557217 8.12821 0.371478 8.87191 0.222887 9.6528C0.111443 10.3593 0.0371478 11.0658 0 11.8095C0 12.107 0 12.4045 0 12.702C0.0371478 13.2226 0.0742956 13.706 0.148591 14.1894C0.222887 14.6728 0.297182 15.1934 0.482921 15.6768C0.817252 16.6436 1.22588 17.6104 1.74595 18.5029C2.00598 18.9491 2.30316 19.3953 2.63749 19.8044C2.86038 20.0646 3.08327 20.2878 3.26901 20.5852C3.45475 20.8084 3.64049 21.0686 3.86337 21.2546C4.08626 21.4777 4.30915 21.6636 4.53203 21.8495C4.71777 21.9983 4.94066 22.147 5.1264 22.2958C2.86038 16.123 5.86935 11.9955 5.86935 11.9955C5.86935 11.9955 5.75791 11.9211 5.72076 11.8839C4.86636 11.1774 4.12341 10.3965 3.49189 9.46688C3.00897 8.72317 2.63749 7.9051 2.45176 7.01266C2.26602 5.93429 2.37746 4.96747 2.82323 4.03784C2.97182 3.66599 3.19471 3.33132 3.4176 3.03384C3.4176 2.99666 3.45475 2.99666 3.45475 2.95947C3.4176 2.99666 3.38045 3.03384 3.3433 3.07103Z" fill="white"/>
</mask>
<g mask="url(#mask2_1342_104583)">
<path d="M6.72347 3.14604L5.94336 22.6311L-0.668945 22.3708L0.111159 2.88574L6.72347 3.14604Z" fill="url(#paint2_linear_1342_104583)"/>
</g>
<path d="M25.5804 18.2388C24.2857 18.2388 23.2338 17.8068 22.4246 16.9698C21.5884 16.1058 21.1838 15.0258 21.1838 13.7298C21.1838 12.4068 21.6154 11.3268 22.4515 10.4628C23.3147 9.59884 24.3936 9.19385 25.6883 9.19385C26.5514 9.19385 27.3066 9.38285 28.0079 9.78784C28.7092 10.1928 29.2217 10.7328 29.5453 11.4078L28.7631 11.8668C28.4664 11.3268 28.0618 10.8678 27.4954 10.5438C26.956 10.2198 26.3356 10.0578 25.6883 10.0578C24.6633 10.0578 23.8002 10.4088 23.1528 11.0838C22.4785 11.8128 22.1549 12.6768 22.1549 13.7298C22.1549 14.7828 22.4785 15.6468 23.1259 16.3218C23.7732 16.9968 24.5824 17.3478 25.6073 17.3478C26.2547 17.3478 26.8751 17.1858 27.4415 16.8348C28.0079 16.5108 28.4395 16.0788 28.7362 15.5388L29.5184 16.0248C29.1947 16.6728 28.6552 17.2128 27.927 17.6178C27.2257 18.0498 26.4435 18.2388 25.5804 18.2388Z" fill="white"/>
<path d="M30.3816 13.7029C30.3816 12.407 30.8132 11.354 31.6493 10.49C32.5124 9.62599 33.5913 9.16699 34.859 9.16699C36.1537 9.16699 37.2057 9.59899 38.0688 10.49C38.9319 11.354 39.3365 12.434 39.3365 13.7029C39.3365 14.9989 38.9049 16.0789 38.0688 16.9429C37.2057 17.8069 36.1268 18.2659 34.859 18.2659C33.5644 18.2659 32.5124 17.8339 31.6493 16.9429C30.7862 16.0789 30.3816 14.9989 30.3816 13.7029ZM34.859 17.3749C35.884 17.3749 36.7201 17.0239 37.3675 16.3219C38.0418 15.5929 38.3655 14.7289 38.3655 13.7299C38.3655 12.704 38.0418 11.84 37.3675 11.138C36.6932 10.436 35.857 10.085 34.859 10.085C33.8611 10.085 33.0249 10.436 32.3506 11.165C31.6763 11.867 31.3526 12.731 31.3526 13.7299C31.3526 14.7559 31.6763 15.6199 32.3506 16.3219C33.0249 17.0239 33.8611 17.3749 34.859 17.3749Z" fill="white"/>
<path d="M41.9527 5.84619H40.9817V18.0501H41.9527V5.84619Z" fill="white"/>
<path d="M43.5981 13.7029C43.5981 12.407 44.0297 11.354 44.8659 10.49C45.729 9.62599 46.8079 9.16699 48.0756 9.16699C49.3703 9.16699 50.4222 9.59899 51.2853 10.49C52.1485 11.354 52.553 12.434 52.553 13.7029C52.553 14.9989 52.1215 16.0789 51.2853 16.9429C50.4222 17.8069 49.3433 18.2659 48.0756 18.2659C46.7809 18.2659 45.729 17.8339 44.8659 16.9429C44.0297 16.0789 43.5981 14.9989 43.5981 13.7029ZM48.0756 17.3749C49.1006 17.3749 49.9367 17.0239 50.584 16.3219C51.2584 15.5929 51.582 14.7289 51.582 13.7299C51.582 12.704 51.2584 11.84 50.584 11.138C49.9097 10.436 49.0736 10.085 48.0756 10.085C47.0776 10.085 46.2415 10.436 45.5671 11.165C44.8928 11.867 44.5692 12.731 44.5692 13.7299C44.5692 14.7559 44.8928 15.6199 45.5671 16.3219C46.2415 17.0239 47.0776 17.3749 48.0756 17.3749Z" fill="white"/>
<path d="M62.776 16.5386L65.7969 9.41064H66.8758L63.0727 18.0236H62.4523L58.6492 9.41064H59.7281L62.776 16.5386Z" fill="white"/>
<path d="M75.48 13.352C75.48 13.46 75.4531 13.73 75.4261 14.108H68.1705C68.2514 15.08 68.602 15.863 69.1954 16.457C69.8158 17.051 70.625 17.348 71.6769 17.348C72.2433 17.348 72.8097 17.267 73.3762 17.078C73.9696 16.889 74.4551 16.646 74.8327 16.322L75.2912 17.078C74.8597 17.429 74.2932 17.699 73.6459 17.942C72.9986 18.158 72.3242 18.293 71.6499 18.293C70.1664 18.293 69.0336 17.861 68.2784 16.97C67.5231 16.079 67.1455 14.999 67.1455 13.757C67.1455 12.461 67.5501 11.381 68.3323 10.517C69.1145 9.65304 70.1664 9.24805 71.4611 9.24805C72.6209 9.24805 73.592 9.62604 74.3472 10.382C75.1024 11.057 75.48 12.083 75.48 13.352ZM71.4611 10.085C70.544 10.085 69.8158 10.382 69.1954 10.949C68.602 11.516 68.2514 12.272 68.1435 13.217H74.4821C74.4821 12.272 74.1854 11.516 73.6459 10.949C73.0795 10.355 72.3512 10.085 71.4611 10.085Z" fill="white"/>
<path d="M84.6775 18.2387C84.0302 18.2387 83.4098 18.0767 82.8974 17.7527C82.3579 17.4287 81.9263 16.9697 81.6296 16.3487L82.4118 15.8627C82.9243 16.8617 83.6796 17.3747 84.6775 17.3747C85.244 17.3747 85.7295 17.2127 86.0801 16.8887C86.4577 16.5647 86.6465 16.1867 86.6465 15.7277C86.6465 15.1607 86.2689 14.7017 85.5407 14.3237C85.3249 14.2157 84.9742 14.0807 84.5157 13.8917C83.9763 13.6757 83.6256 13.5137 83.4907 13.4327C82.5737 12.9738 82.1151 12.2988 82.1151 11.4078C82.1151 10.7328 82.3579 10.1928 82.8434 9.76079C83.3289 9.32879 83.9763 9.11279 84.7585 9.11279C85.9453 9.11279 86.8084 9.57179 87.3478 10.4628L86.6735 11.0028C86.2689 10.3008 85.6216 9.94978 84.7315 9.94978C84.192 9.94978 83.7874 10.0848 83.4907 10.3278C83.194 10.5978 83.0322 10.9218 83.0322 11.3538C83.0322 11.9208 83.3559 12.3528 83.9763 12.6768L84.9473 13.1087C85.5407 13.3517 85.9453 13.5137 86.1071 13.6217C87.132 14.1077 87.6176 14.8097 87.6176 15.7007C87.6176 16.4297 87.3478 17.0237 86.7814 17.5367C86.2689 17.9957 85.5676 18.2387 84.6775 18.2387Z" fill="white"/>
<path d="M96.9229 13.352C96.9229 13.46 96.8959 13.73 96.869 14.108H89.6133C89.6943 15.08 90.0449 15.863 90.6383 16.457C91.2587 17.051 92.0678 17.348 93.1198 17.348C93.6862 17.348 94.2526 17.267 94.819 17.078C95.4124 16.889 95.898 16.646 96.2756 16.322L96.7341 17.078C96.3025 17.429 95.7361 17.699 95.0888 17.942C94.4414 18.158 93.7671 18.293 93.0928 18.293C91.6093 18.293 90.4765 17.861 89.7212 16.97C88.966 16.079 88.5884 14.999 88.5884 13.757C88.5884 12.461 88.993 11.381 89.7752 10.517C90.5574 9.65304 91.6093 9.24805 92.904 9.24805C94.0638 9.24805 95.0348 9.62604 95.7901 10.382C96.5453 11.057 96.9229 12.083 96.9229 13.352ZM92.904 10.085C91.9869 10.085 91.2587 10.382 90.6383 10.949C90.0449 11.516 89.6943 12.272 89.5864 13.217H95.898C95.898 12.272 95.6013 11.516 95.0618 10.949C94.5223 10.355 93.7941 10.085 92.904 10.085Z" fill="white"/>
<path d="M78.177 18.0227H77.2329V13.7837C77.2329 11.4887 79.0401 9.51776 81.3327 9.32876C81.4406 9.32876 81.5755 9.30176 81.7104 9.30176V10.2467C81.6025 10.2467 81.5216 10.2467 81.4137 10.2467C79.6065 10.3817 78.2039 11.9207 78.2039 13.7297V18.0227H78.177Z" fill="white"/>
<path d="M54.6572 18.0227H53.7131V13.7837C53.7131 11.4887 55.5203 9.51776 57.813 9.32876C57.9478 9.32876 58.0557 9.30176 58.1906 9.30176V10.2467C58.0827 10.2467 58.0018 10.2467 57.8939 10.2467C56.0867 10.3817 54.6841 11.9207 54.6841 13.7297V18.0227H54.6572Z" fill="white"/>
<defs>
<linearGradient id="paint0_linear_1342_104583" x1="21.1477" y1="-1.9771" x2="5.7723" y2="7.92601" gradientUnits="userSpaceOnUse">
<stop stop-color="#5AD9FD"/>
<stop offset="1" stop-color="#0A42A2"/>
</linearGradient>
<linearGradient id="paint1_linear_1342_104583" x1="4.00927" y1="17.9746" x2="14.9246" y2="17.9746" gradientUnits="userSpaceOnUse">
<stop stop-color="#FEE372"/>
<stop offset="1" stop-color="#FAAF42"/>
</linearGradient>
<linearGradient id="paint2_linear_1342_104583" x1="3.35108" y1="4.40679" x2="2.67604" y2="21.5358" gradientUnits="userSpaceOnUse">
<stop stop-color="#E1382F"/>
<stop offset="0.00446888" stop-color="#E1382F"/>
<stop offset="1" stop-color="#FB6C7E"/>
</linearGradient>
</defs>
</svg>
