<svg width="178" height="43" viewBox="0 0 178 43" fill="none" xmlns="http://www.w3.org/2000/svg">
<mask id="mask0_2312_164896" style="mask-type:alpha" maskUnits="userSpaceOnUse" x="4" y="0" width="24" height="22">
<path d="M14.9217 0.560166C12.6733 0.969384 10.6292 1.78782 8.72145 3.15188C7.76756 3.76571 6.94995 4.51594 6.20047 5.33438C6.20047 5.40259 6.20047 5.40258 6.13233 5.40258C6.13233 5.40258 6.13233 5.40258 6.0642 5.47079C6.0642 5.53899 5.99606 5.53899 5.99606 5.60719C5.58726 6.22102 5.17845 6.83485 4.90591 7.44868C4.0883 9.15375 3.88389 10.927 4.22456 12.7685C4.56524 14.4054 5.17845 15.8377 6.13233 17.2699C7.22249 18.975 8.65331 20.4073 10.2204 21.7031C10.2885 21.7713 10.4929 21.9077 10.4929 21.9077C10.4929 21.9077 10.9699 21.4985 11.2424 21.2939C13.1502 19.7252 15.2624 18.4294 17.5789 17.6109C19.0779 17.0653 20.5769 16.5879 22.0077 15.9059C23.2341 15.3602 24.3924 14.7464 25.4826 13.8598C26.3683 13.1095 27.1178 12.1547 27.3903 10.9952C27.7991 9.42657 27.6629 7.9261 27.1178 6.42563C26.5046 4.78876 25.4826 3.4929 24.0517 2.40165C22.8253 1.44681 21.4626 0.832978 19.8955 0.560166C19.146 0.355557 18.4647 0.287354 17.7152 0.287354C16.7613 0.287354 15.8756 0.355557 14.9217 0.560166Z" fill="white"/>
</mask>
<g mask="url(#mask0_2312_164896)">
<path d="M37.338 15.4278L10.6974 32.615L-6.13184 6.56145L20.5088 -10.6257L37.338 15.4278Z" fill="url(#paint0_linear_2312_164896)"/>
</g>
<mask id="mask1_2312_164896" style="mask-type:alpha" maskUnits="userSpaceOnUse" x="7" y="21" width="21" height="22">
<path d="M9.04424 40.3224C9.31678 40.527 9.65745 40.7317 9.92999 40.8681C10.3388 41.1409 10.8157 41.3455 11.2245 41.5501C12.3147 42.0957 13.473 42.4367 14.6994 42.7095C15.7896 42.9142 16.8797 43.0506 17.9699 42.9824C18.5149 42.9824 19.06 42.9141 19.6051 42.8459C20.559 42.7095 21.5129 42.3685 22.3305 41.9593C23.08 41.6183 23.7613 41.1409 24.3745 40.5952C24.8515 40.186 25.3284 39.7086 25.7372 39.163C26.2142 38.5492 26.623 37.8671 26.8955 37.1851C27.0318 36.7759 27.168 36.3667 27.3043 35.9574C27.3724 35.5482 27.4406 35.139 27.5087 34.7298C27.5768 34.1842 27.5087 33.6385 27.4406 33.0929C27.3724 32.4109 27.0999 31.797 26.7592 31.1832C26.5548 30.774 26.2823 30.433 25.9416 30.092C25.5328 29.6145 25.0559 29.2735 24.5789 28.9325C24.0338 28.5233 23.4206 28.1823 22.8074 27.9095C22.0579 27.5685 21.3766 27.2274 20.6271 26.9546C19.9458 26.6818 19.2644 26.4772 18.5831 26.2044C17.3567 25.727 16.1302 25.3178 14.9719 24.6357C13.9499 24.0901 13.0642 23.4763 12.1784 22.8624C11.5652 22.4532 10.952 21.9758 10.4069 21.4302C10.4069 21.4302 4.88803 29.0689 9.04424 40.3224Z" fill="white"/>
</mask>
<g mask="url(#mask1_2312_164896)">
<path d="M27.3912 21.7715H4.70239V43.3919H27.3912V21.7715Z" fill="url(#paint1_linear_2312_164896)"/>
</g>
<mask id="mask2_2312_164896" style="mask-type:alpha" maskUnits="userSpaceOnUse" x="0" y="5" width="11" height="36">
<path d="M6.13211 5.26589C5.38263 6.08433 4.76942 6.90276 4.15621 7.7894C3.543 8.74425 2.99792 9.69909 2.52098 10.6539C2.11217 11.4724 1.7715 12.2908 1.49896 13.1774C1.02202 14.5415 0.681346 15.9056 0.408808 17.3378C0.204404 18.6337 0.0681346 19.9296 0 21.2936C0 21.8392 0 22.3849 0 22.9305C0.0681346 23.8853 0.136269 24.772 0.272538 25.6586C0.408807 26.5453 0.545077 27.5001 0.88575 28.3867C1.49896 30.16 2.24844 31.9333 3.20233 33.5702C3.67927 34.3886 4.22434 35.207 4.83756 35.9573C5.24636 36.4347 5.65517 36.8439 5.99584 37.3895C6.33652 37.7988 6.67719 38.2762 7.086 38.6172C7.4948 39.0264 7.90361 39.3674 8.31242 39.7085C8.65309 39.9813 9.0619 40.2541 9.40257 40.5269C5.24636 29.2052 10.7653 21.6346 10.7653 21.6346C10.7653 21.6346 10.5609 21.4982 10.4927 21.43C8.92563 20.1342 7.56294 18.7019 6.40465 16.9968C5.5189 15.6328 4.83756 14.1323 4.49688 12.4954C4.15621 10.5175 4.36061 8.74425 5.17823 7.03917C5.45077 6.35714 5.85957 5.74331 6.26838 5.19769C6.26838 5.12948 6.33652 5.12948 6.33652 5.06128C6.26838 5.12948 6.20025 5.19769 6.13211 5.26589Z" fill="white"/>
</mask>
<g mask="url(#mask2_2312_164896)">
<path d="M12.332 5.40296L10.9011 41.1414L-1.22681 40.664L0.20402 4.92554L12.332 5.40296Z" fill="url(#paint2_linear_2312_164896)"/>
</g>
<path d="M46.9181 33.0868C44.5435 33.0868 42.6141 32.2944 41.1299 30.7593C39.5963 29.1746 38.8542 27.1937 38.8542 24.8167C38.8542 22.3901 39.6458 20.4093 41.1794 18.8246C42.7625 17.2399 44.7414 16.4971 47.116 16.4971C48.6991 16.4971 50.0843 16.8437 51.3706 17.5865C52.6569 18.3294 53.5968 19.3198 54.1905 20.5578L52.7558 21.3997C52.2116 20.4093 51.4695 19.5674 50.4306 18.9731C49.4412 18.3789 48.3033 18.0818 47.116 18.0818C45.2361 18.0818 43.653 18.7255 42.4657 19.9636C41.2289 21.3007 40.6352 22.8853 40.6352 24.8167C40.6352 26.748 41.2289 28.3327 42.4162 29.5707C43.6035 30.8088 45.0877 31.4526 46.9676 31.4526C48.1549 31.4526 49.2928 31.1554 50.3317 30.5116C51.3706 29.9174 52.1621 29.125 52.7063 28.1346L54.141 29.026C53.5474 30.2145 52.5579 31.2049 51.2222 31.9478C49.9359 32.7401 48.5012 33.0868 46.9181 33.0868Z" fill="black"/>
<path d="M55.7244 24.7664C55.7244 22.3894 56.5159 20.458 58.0495 18.8733C59.6326 17.2886 61.6115 16.4468 63.9367 16.4468C66.3113 16.4468 68.2407 17.2391 69.8238 18.8733C71.4069 20.458 72.149 22.4389 72.149 24.7664C72.149 27.1434 71.3574 29.1243 69.8238 30.709C68.2407 32.2936 66.2618 33.1355 63.9367 33.1355C61.562 33.1355 59.6326 32.3432 58.0495 30.709C56.4664 29.1243 55.7244 27.1434 55.7244 24.7664ZM63.9367 31.5013C65.8166 31.5013 67.3502 30.8575 68.5375 29.57C69.7743 28.2329 70.368 26.6482 70.368 24.8159C70.368 22.9341 69.7743 21.3494 68.5375 20.0618C67.3007 18.7743 65.7671 18.1305 63.9367 18.1305C62.1062 18.1305 60.5726 18.7743 59.3358 20.1114C58.099 21.3989 57.5053 22.9836 57.5053 24.8159C57.5053 26.6977 58.099 28.2824 59.3358 29.57C60.5726 30.8575 62.1062 31.5013 63.9367 31.5013Z" fill="black"/>
<path d="M76.9475 10.356H75.1665V32.7397H76.9475V10.356Z" fill="black"/>
<path d="M79.9653 24.7664C79.9653 22.3894 80.7569 20.458 82.2905 18.8733C83.8736 17.2886 85.8525 16.4468 88.1776 16.4468C90.5523 16.4468 92.4817 17.2391 94.0648 18.8733C95.6479 20.458 96.3899 22.4389 96.3899 24.7664C96.3899 27.1434 95.5984 29.1243 94.0648 30.709C92.4817 32.2936 90.5028 33.1355 88.1776 33.1355C85.803 33.1355 83.8736 32.3432 82.2905 30.709C80.7569 29.1243 79.9653 27.1434 79.9653 24.7664ZM88.1776 31.5013C90.0576 31.5013 91.5912 30.8575 92.7785 29.57C94.0153 28.2329 94.609 26.6482 94.609 24.8159C94.609 22.9341 94.0153 21.3494 92.7785 20.0618C91.5417 18.7743 90.0081 18.1305 88.1776 18.1305C86.3472 18.1305 84.8136 18.7743 83.5768 20.1114C82.34 21.3989 81.7463 22.9836 81.7463 24.8159C81.7463 26.6977 82.34 28.2824 83.5768 29.57C84.8136 30.8575 86.3472 31.5013 88.1776 31.5013Z" fill="black"/>
<path d="M115.14 29.9675L120.681 16.8938H122.66L115.685 32.6911H114.547L107.571 16.8938H109.55L115.14 29.9675Z" fill="black"/>
<path d="M138.442 24.1227C138.442 24.3208 138.392 24.816 138.343 25.5093H125.035C125.183 27.2921 125.826 28.7282 126.915 29.8177C128.052 30.9072 129.537 31.4519 131.466 31.4519C132.505 31.4519 133.544 31.3033 134.583 30.9567C135.671 30.61 136.562 30.1643 137.254 29.5701L138.095 30.9567C137.304 31.6005 136.265 32.0957 135.077 32.5414C133.89 32.9375 132.653 33.1852 131.417 33.1852C128.696 33.1852 126.618 32.3928 125.233 30.7586C123.847 29.1244 123.155 27.1435 123.155 24.8655C123.155 22.4885 123.897 20.5077 125.332 18.923C126.766 17.3383 128.696 16.5955 131.07 16.5955C133.198 16.5955 134.979 17.2888 136.364 18.6754C137.749 19.9134 138.442 21.7952 138.442 24.1227ZM131.07 18.1306C129.388 18.1306 128.052 18.6754 126.915 19.7153C125.826 20.7553 125.183 22.1419 124.985 23.8751H136.611C136.611 22.1419 136.067 20.7553 135.077 19.7153C134.039 18.6258 132.703 18.1306 131.07 18.1306Z" fill="black"/>
<path d="M155.311 33.0866C154.124 33.0866 152.986 32.7895 152.046 32.1953C151.056 31.601 150.265 30.7591 149.721 29.6201L151.155 28.7288C152.095 30.561 153.481 31.502 155.311 31.502C156.35 31.502 157.24 31.2048 157.884 30.6106C158.576 30.0163 158.922 29.323 158.922 28.4811C158.922 27.4412 158.23 26.5993 156.894 25.906C156.498 25.7079 155.855 25.4603 155.014 25.1137C154.025 24.7175 153.382 24.4204 153.134 24.2718C151.452 23.43 150.611 22.1919 150.611 20.5577C150.611 19.3197 151.056 18.3292 151.947 17.5369C152.837 16.7446 154.025 16.3484 155.459 16.3484C157.636 16.3484 159.219 17.1903 160.209 18.8245L158.972 19.8149C158.23 18.5273 157.043 17.8836 155.41 17.8836C154.421 17.8836 153.678 18.1312 153.134 18.5769C152.59 19.0721 152.293 19.6663 152.293 20.4587C152.293 21.4986 152.887 22.291 154.025 22.8852L155.806 23.6776C156.894 24.1233 157.636 24.4204 157.933 24.6185C159.813 25.5099 160.703 26.7974 160.703 28.4316C160.703 29.7687 160.209 30.8582 159.17 31.7991C158.23 32.641 156.944 33.0866 155.311 33.0866Z" fill="black"/>
<path d="M177.771 24.1227C177.771 24.3208 177.721 24.816 177.672 25.5093H164.364C164.512 27.2921 165.156 28.7282 166.244 29.8177C167.382 30.9072 168.866 31.4519 170.795 31.4519C171.834 31.4519 172.873 31.3033 173.912 30.9567C175 30.61 175.891 30.1643 176.584 29.5701L177.425 30.9567C176.633 31.6005 175.594 32.0957 174.407 32.5414C173.22 32.9375 171.983 33.1852 170.746 33.1852C168.025 33.1852 165.947 32.3928 164.562 30.7586C163.177 29.1244 162.484 27.1435 162.484 24.8655C162.484 22.4885 163.226 20.5077 164.661 18.923C166.096 17.3383 168.025 16.5955 170.4 16.5955C172.527 16.5955 174.308 17.2888 175.693 18.6754C177.078 19.9134 177.771 21.7952 177.771 24.1227ZM170.4 18.1306C168.718 18.1306 167.382 18.6754 166.244 19.7153C165.156 20.7553 164.512 22.1419 164.315 23.8751H175.891C175.891 22.1419 175.347 20.7553 174.357 19.7153C173.368 18.6258 172.032 18.1306 170.4 18.1306Z" fill="black"/>
<path d="M143.388 32.6898H141.656V24.9149C141.656 20.7056 144.971 17.0905 149.176 16.7439C149.374 16.7439 149.621 16.6943 149.869 16.6943V18.4276C149.671 18.4276 149.522 18.4276 149.325 18.4276C146.01 18.6752 143.437 21.4979 143.437 24.8159V32.6898H143.388Z" fill="black"/>
<path d="M100.249 32.6898H98.5178V24.9149C98.5178 20.7056 101.832 17.0905 106.038 16.7439C106.285 16.7439 106.483 16.6943 106.73 16.6943V18.4276C106.532 18.4276 106.384 18.4276 106.186 18.4276C102.871 18.6752 100.299 21.4979 100.299 24.8159V32.6898H100.249Z" fill="black"/>
<defs>
<linearGradient id="paint0_linear_2312_164896" x1="38.7882" y1="-3.99226" x2="10.5875" y2="14.1715" gradientUnits="userSpaceOnUse">
<stop stop-color="#5AD9FD"/>
<stop offset="1" stop-color="#0A42A2"/>
</linearGradient>
<linearGradient id="paint1_linear_2312_164896" x1="7.35375" y1="32.6016" x2="27.3741" y2="32.6016" gradientUnits="userSpaceOnUse">
<stop stop-color="#FEE372"/>
<stop offset="1" stop-color="#FAAF42"/>
</linearGradient>
<linearGradient id="paint2_linear_2312_164896" x1="6.14651" y1="7.71536" x2="4.90838" y2="39.1325" gradientUnits="userSpaceOnUse">
<stop stop-color="#E1382F"/>
<stop offset="0.00446888" stop-color="#E1382F"/>
<stop offset="1" stop-color="#FB6C7E"/>
</linearGradient>
</defs>
</svg>
