<svg viewBox="0 0 17 18" fill="none" xmlns="http://www.w3.org/2000/svg">
<path d="M3.25 10.384C1.825 10.9981 1 11.9193 1 12.8404C1 14.7595 4.375 16.2948 8.5 16.2948C12.625 16.2948 16 14.7595 16 12.8404C16 11.8425 15.175 10.9981 13.75 10.384" stroke="white" stroke-width="1.5" stroke-linecap="round" stroke-linejoin="round"/>
<path d="M13.15 11.3823C13.15 11.8428 12.775 12.2267 12.325 12.2267H9.24996C8.79996 12.2267 8.12496 12.2267 7.67496 12.2267H4.59996C4.14996 12.2267 3.77496 11.8428 3.77496 11.3823V9.847C3.77496 9.38643 3.77496 8.69556 3.77496 8.23498V5.01095C3.77496 4.55037 4.07496 4.01303 4.44996 3.70598L7.82496 1.17281C8.19996 0.942519 8.72496 0.942519 9.09996 1.17281L12.475 3.70598C12.85 3.93627 13.15 4.55037 13.15 5.01095V8.15822C13.15 8.6188 13.15 9.30966 13.15 9.77024V11.3823V11.3823Z" stroke="white" stroke-width="1.5" stroke-linecap="round" stroke-linejoin="round"/>
<path d="M10 9.53996C10 8.69556 9.325 8.0047 8.5 8.0047C7.675 8.0047 7 8.69556 7 9.53996V12.1499H10V9.53996Z" fill="white"/>
</svg>
