<svg viewBox="0 0 21 21" fill="none" xmlns="http://www.w3.org/2000/svg">
<path d="M10.5 12.5669C11.6417 12.5669 12.5672 11.6414 12.5672 10.4998C12.5672 9.35811 11.6417 8.43262 10.5 8.43262C9.35836 8.43262 8.43286 9.35811 8.43286 10.4998C8.43286 11.6414 9.35836 12.5669 10.5 12.5669Z" stroke="#8083A3" stroke-width="2" stroke-miterlimit="10"/>
<path d="M13.0496 4.09195L12.2227 2.71385C12.016 2.36932 11.7404 1.88699 11.5337 1.61137L10.7068 0.233268C10.5001 -0.111257 10.2245 -0.0423522 10.0867 0.233268L9.32874 1.61137C9.19093 1.88699 8.91531 2.36932 8.70859 2.71385L7.95064 4.09195C7.74392 4.43647 7.95064 4.64319 8.29516 4.64319L10.0178 3.88523V5.88347C10.0178 6.15909 10.2245 6.36581 10.5001 6.36581C10.7757 6.36581 10.9825 6.15909 10.9825 5.88347V3.88523L12.774 4.64319C13.1185 4.64319 13.2563 4.36757 13.0496 4.09195Z" fill="#8083A3"/>
<path d="M4.09195 7.95064L2.71385 8.7775C2.36932 8.98421 1.88699 9.25983 1.61137 9.46655L0.233268 10.2934C-0.111257 10.5001 -0.0423522 10.7757 0.233268 10.9136L1.61137 11.6715C1.95589 11.8782 2.43823 12.1538 2.71385 12.2917L4.09195 13.0496C4.43647 13.2563 4.64319 13.0496 4.64319 12.7051L3.88523 10.9825H5.88347C6.15909 10.9825 6.36581 10.7757 6.36581 10.5001C6.36581 10.2245 6.15909 10.0178 5.88347 10.0178H3.88523L4.64319 8.22626C4.64319 7.88173 4.36757 7.74393 4.09195 7.95064Z" fill="#8083A3"/>
<path d="M7.9504 16.9081L8.77726 18.2862C8.98397 18.6308 9.25959 19.1131 9.4663 19.3887L10.2932 20.7668C10.4999 21.1113 10.7755 21.0424 10.9133 20.7668L11.6713 19.3887C11.878 19.0442 12.1536 18.5619 12.2914 18.2862L13.0494 16.9081C13.2561 16.5636 13.0494 16.3569 12.7048 16.3569L10.9822 17.1149V15.1166C10.9822 14.841 10.7755 14.6343 10.4999 14.6343C10.2243 14.6343 10.0175 14.841 10.0175 15.1166V17.1149L8.22602 16.3569C7.88149 16.3569 7.74368 16.6325 7.9504 16.9081Z" fill="#8083A3"/>
<path d="M16.9084 13.0496L18.2865 12.2227C18.631 12.016 19.1133 11.7404 19.389 11.5337L20.7671 10.7068C21.1116 10.5001 21.0427 10.2245 20.7671 10.0867L19.389 9.32874C19.0444 9.12202 18.5621 8.8464 18.2865 8.70859L16.9084 7.95064C16.5639 7.74392 16.3571 7.95064 16.3571 8.29516L17.1151 10.0178H15.1169C14.8412 10.0178 14.6345 10.2245 14.6345 10.5001C14.6345 10.7757 14.8412 10.9825 15.1169 10.9825H17.1151L16.3571 12.774C16.3571 13.1185 16.6328 13.2563 16.9084 13.0496Z" fill="#8083A3"/>
</svg>
