<svg viewBox="0 0 18 20" fill="none" xmlns="http://www.w3.org/2000/svg">
<path d="M7 17.8L8.3 18.5C8.6 18.6 8.7 18.7 8.8 18.7C8.9 18.7 9 18.7 9.2 18.7C9.3 18.7 9.5 18.6 9.7 18.5L11 17.8M3 15.6L1.7 14.9C1.4 14.7 1.3 14.7 1.2 14.6C1.1 14.5 1 14.4 1 14.3C1 14.2 1 14 1 13.7V12.2M1 7.6V6.2C1 5.9 1 5.7 1 5.6C1 5.5 1.1 5.4 1.2 5.3C1.3 5.2 1.4 5.1 1.7 4.9L3 4.2M7 2L8.3 1.2C8.6 1.1 8.7 1 8.8 1C8.9 1 9 1 9.2 1C9.3 1 9.5 1.1 9.7 1.2L11 1.9M15 4.2L16.2 4.9C16.5 5.1 16.6 5.1 16.7 5.2C16.8 5.3 16.9 5.4 16.9 5.5C16.9 5.6 16.9 5.8 16.9 6.1V7.5M17 12.2V13.6C17 13.9 17 14.1 17 14.2C17 14.3 16.9 14.4 16.8 14.5C16.7 14.6 16.6 14.7 16.3 14.8L15 15.5M7 8.8L9 9.9M9 9.9L11 8.8M9 9.9V12.2M1.5 5.7L3.5 6.8M14.3 6.8L16.9 5.3M9 16V19" stroke="#8083A3" stroke-width="1.5" stroke-linecap="round" stroke-linejoin="round"/>
</svg>
