<svg viewBox="0 0 18 20" fill="none" xmlns="http://www.w3.org/2000/svg">
<path d="M5.63226 12.0955L3.2498 9.50879C3.2498 9.50879 2.36488 8.76002 1.47997 9.50879C0.526983 10.1895 1.20769 11.1425 1.68418 11.687C2.16067 12.2316 4.33892 15.1586 4.33892 15.1586C4.33892 15.1586 7.1298 18.6302 9.23998 18.6302H13.8688C13.8688 18.6302 17 18.426 17 14.2056V6.71791C17 6.71791 16.9319 5.3565 15.7067 5.3565C14.4814 5.3565 14.4133 6.71791 14.4133 6.71791V10.3256H14.2091V4.26738C14.2091 4.26738 14.141 3.11018 12.9158 2.90597C12.9158 2.90597 11.6224 3.04211 11.6224 4.26738V9.44072H11.4182V2.36141C11.4182 2.36141 11.2821 1 10.1249 1C8.89963 1 8.83156 2.36141 8.83156 2.36141V9.37265H8.62735V3.5186C8.62735 3.5186 8.55928 2.49755 7.1298 2.42948C7.1298 2.42948 5.83647 2.56562 5.83647 3.79088V12.0955H5.63226Z" stroke="#8083A3" stroke-width="1.5" stroke-miterlimit="10" stroke-linecap="round" stroke-linejoin="round"/>
</svg>
