<svg viewBox="0 0 20 20" fill="none" xmlns="http://www.w3.org/2000/svg">
<path d="M10 19C14.9706 19 19 14.9706 19 10C19 5.02944 14.9706 1 10 1C5.02944 1 1 5.02944 1 10C1 14.9706 5.02944 19 10 19Z" stroke="white" stroke-width="1.5" stroke-linecap="round" stroke-linejoin="round"/>
<path d="M7.75 7.2688C7.75 6.83924 7.75 6.62446 7.83977 6.50456C7.918 6.40007 8.03774 6.33469 8.16794 6.32539C8.31734 6.31472 8.49801 6.43086 8.85935 6.66315L13.1079 9.39435C13.4214 9.59592 13.5782 9.6967 13.6323 9.82485C13.6797 9.93682 13.6797 10.0632 13.6323 10.1751C13.5782 10.3033 13.4214 10.4041 13.1079 10.6056L8.85935 13.3368C8.49801 13.5691 8.31734 13.6853 8.16794 13.6746C8.03774 13.6653 7.918 13.5999 7.83977 13.4954C7.75 13.3755 7.75 13.1608 7.75 12.7312V7.2688Z" stroke="white" stroke-width="1.5" stroke-linecap="round" stroke-linejoin="round"/>
</svg>
