<svg viewBox="0 0 16 16" fill="none" xmlns="http://www.w3.org/2000/svg">
<path d="M15.9802 8.00826C15.9802 12.4302 12.4104 16 7.98844 16C3.56649 16 0.0197144 12.4072 0.0197144 8.00826C0.0197144 3.58631 3.58952 0.01651 8.01147 0.01651C12.4334 0.01651 15.9802 3.58631 15.9802 8.00826Z" fill="#FFAA00"/>
<path d="M12.7881 3.78912C11.6762 2.83382 10.2465 2.27656 8.65806 2.27656C5.13692 2.27656 2.30413 5.11593 2.30413 8.64524C2.30413 10.2109 2.88657 11.6704 3.81319 12.7849C2.46297 11.6173 1.61578 9.89244 1.61578 7.98183C1.61578 4.45252 4.44858 1.61315 7.96972 1.61315C9.90237 1.58662 11.6497 2.43577 12.7881 3.78912Z" fill="#FF7F00"/>
<path d="M12.7571 6.46081H11.7344L12.1683 4.80466H10.7736L10.3708 6.46081H9.13111L8.66625 4.80466H7.30263L6.83776 6.46081H5.59812L5.19523 4.80466H3.76963L4.20351 6.46081H3.21179V7.63614H4.51342L5.44316 11.1888H6.80677L7.7675 7.63614H8.20138L9.13111 11.1888H10.4947L11.4555 7.63614H12.7881V6.46081H12.7571ZM6.21794 8.62449C6.21794 8.6512 6.21794 8.67791 6.18695 8.70462C6.18695 8.73134 6.18695 8.75805 6.18695 8.75805C6.18695 8.78476 6.18695 8.81147 6.15596 8.81147C6.15596 8.83818 6.15596 8.83818 6.15596 8.8649C6.15596 8.83818 6.15596 8.83818 6.15596 8.81147C6.15596 8.78476 6.15596 8.78476 6.15596 8.75805C6.15596 8.73134 6.15596 8.73134 6.15596 8.70462C6.15596 8.67791 6.15596 8.67791 6.15596 8.6512L5.90803 7.60943H6.52785L6.21794 8.62449ZM9.81292 8.75805L9.78193 8.83818L9.75094 8.75805L9.44103 7.66285H10.0609L9.81292 8.75805Z" fill="white"/>
</svg>
