<svg viewBox="0 0 54 54" fill="none" xmlns="http://www.w3.org/2000/svg">
<circle opacity="0.3" cx="27" cy="27" r="27" fill="black"/>
<path d="M31 21V20.2C31 19.0799 31 18.5198 30.782 18.092C30.5903 17.7157 30.2843 17.4097 29.908 17.218C29.4802 17 28.9201 17 27.8 17H26.2C25.0799 17 24.5198 17 24.092 17.218C23.7157 17.4097 23.4097 17.7157 23.218 18.092C23 18.5198 23 19.0799 23 20.2V21M25 26.5V31.5M29 26.5V31.5M18 21H36M34 21V32.2C34 33.8802 34 34.7202 33.673 35.362C33.3854 35.9265 32.9265 36.3854 32.362 36.673C31.7202 37 30.8802 37 29.2 37H24.8C23.1198 37 22.2798 37 21.638 36.673C21.0735 36.3854 20.6146 35.9265 20.327 35.362C20 34.7202 20 33.8802 20 32.2V21" stroke="white" stroke-width="2" stroke-linecap="round" stroke-linejoin="round"/>
</svg>
