<svg viewBox="0 0 19 19" fill="none" xmlns="http://www.w3.org/2000/svg">
<path d="M17.4165 5.146H12.6665" stroke="#333333" stroke-width="1.5" stroke-miterlimit="10" stroke-linecap="round" stroke-linejoin="round"/>
<path d="M4.75016 5.146H1.5835" stroke="#333333" stroke-width="1.5" stroke-miterlimit="10" stroke-linecap="round" stroke-linejoin="round"/>
<path d="M7.91683 7.91667C9.44712 7.91667 10.6877 6.67612 10.6877 5.14583C10.6877 3.61554 9.44712 2.375 7.91683 2.375C6.38654 2.375 5.146 3.61554 5.146 5.14583C5.146 6.67612 6.38654 7.91667 7.91683 7.91667Z" stroke="#333333" stroke-width="1.5" stroke-miterlimit="10" stroke-linecap="round" stroke-linejoin="round"/>
<path d="M17.4167 13.854H14.25" stroke="#333333" stroke-width="1.5" stroke-miterlimit="10" stroke-linecap="round" stroke-linejoin="round"/>
<path d="M6.3335 13.854H1.5835" stroke="#333333" stroke-width="1.5" stroke-miterlimit="10" stroke-linecap="round" stroke-linejoin="round"/>
<path d="M11.0833 16.6252C12.6136 16.6252 13.8542 15.3846 13.8542 13.8543C13.8542 12.324 12.6136 11.0835 11.0833 11.0835C9.55304 11.0835 8.3125 12.324 8.3125 13.8543C8.3125 15.3846 9.55304 16.6252 11.0833 16.6252Z" stroke="#333333" stroke-width="1.5" stroke-miterlimit="10" stroke-linecap="round" stroke-linejoin="round"/>
</svg>
