<svg viewBox="0 0 22 21" fill="none" xmlns="http://www.w3.org/2000/svg">
<path d="M4.21754 10.0719L5.59364 7.90943C5.69193 7.71285 5.59364 7.41797 5.39705 7.31968L2.93973 6.92651C2.64486 6.82821 2.34998 7.12309 2.54656 7.41797L3.62778 10.0719C3.72608 10.3668 4.11925 10.3668 4.21754 10.0719Z" fill="#8083A3"/>
<path d="M15.226 18.4261L14.7345 15.9688C14.6362 15.6739 14.4397 15.5756 14.1448 15.7722L12.0806 17.05C11.7858 17.2466 11.8841 17.5415 12.0806 17.7381L14.7345 18.9176C15.0294 18.9176 15.3243 18.721 15.226 18.4261Z" fill="#8083A3"/>
<path d="M8.24756 6.3371C8.54244 4.76442 8.93561 3.48662 9.42707 2.60198C10.0168 1.61905 10.6066 1.0293 11.3929 1.0293C12.081 1.0293 12.769 1.52076 13.2605 2.60198C13.752 3.48662 14.1451 4.76442 14.44 6.23881" stroke="#8083A3" stroke-width="1.5" stroke-miterlimit="10" stroke-linecap="round"/>
<path d="M8.05078 13.6108C8.24737 15.3801 8.73883 16.9528 9.23029 18.1323C9.82005 19.4101 10.6064 19.9999 11.3927 19.9999C11.9825 19.9999 12.5722 19.6067 13.0637 18.8204C13.2603 18.5255 13.4569 18.1323 13.6535 17.6408" stroke="#8083A3" stroke-width="1.5" stroke-miterlimit="10" stroke-linecap="round"/>
<path d="M3.13656 8.69693C1.76046 9.18839 0.974121 9.77815 0.974121 10.4662C0.974121 12.0389 5.49559 13.2184 11 13.2184C16.6027 13.2184 21.0258 11.9406 21.0258 10.4662C21.0258 9.77815 20.0429 9.0901 18.5685 8.59863" stroke="#8083A3" stroke-width="1.5" stroke-miterlimit="10" stroke-linecap="round"/>
</svg>
