<svg viewBox="0 0 22 21" fill="none" xmlns="http://www.w3.org/2000/svg">
<path d="M5.08575 7.77623L3.95582 9.55184L3.10319 7.45902L5.08575 7.77623Z" fill="white" stroke="white"/>
<path d="M14.7021 18.356L12.5011 17.3778L14.2855 16.2731L14.7021 18.356Z" fill="white" stroke="white"/>
<path d="M8.24756 6.3371C8.54244 4.76442 8.93561 3.48662 9.42707 2.60198C10.0168 1.61905 10.6066 1.0293 11.3929 1.0293C12.081 1.0293 12.769 1.52076 13.2605 2.60198C13.752 3.48662 14.1451 4.76442 14.44 6.23881" stroke="white" stroke-width="1.5" stroke-miterlimit="10" stroke-linecap="round"/>
<path d="M8.05078 13.6104C8.24737 15.3796 8.73883 16.9523 9.23029 18.1318C9.82005 19.4096 10.6064 19.9994 11.3927 19.9994C11.9825 19.9994 12.5722 19.6062 13.0637 18.8199C13.2603 18.525 13.4569 18.1318 13.6535 17.6404" stroke="white" stroke-width="1.5" stroke-miterlimit="10" stroke-linecap="round"/>
<path d="M3.13656 8.69693C1.76046 9.18839 0.974121 9.77815 0.974121 10.4662C0.974121 12.0389 5.49559 13.2184 11 13.2184C16.6027 13.2184 21.0258 11.9406 21.0258 10.4662C21.0258 9.77815 20.0429 9.0901 18.5685 8.59863" stroke="white" stroke-width="1.5" stroke-miterlimit="10" stroke-linecap="round"/>
</svg>
