<svg viewBox="0 0 19 19" fill="none" xmlns="http://www.w3.org/2000/svg">
<path d="M7.12516 17.4163H11.8752C15.8335 17.4163 17.4168 15.833 17.4168 11.8747V7.12467C17.4168 3.16634 15.8335 1.58301 11.8752 1.58301H7.12516C3.16683 1.58301 1.5835 3.16634 1.5835 7.12467V11.8747C1.5835 15.833 3.16683 17.4163 7.12516 17.4163Z" stroke="white" stroke-width="1.5" stroke-linecap="round" stroke-linejoin="round"/>
<path d="M5.3042 7.33008L9.50002 9.76049L13.6642 7.34591" stroke="white" stroke-width="1.5" stroke-linecap="round" stroke-linejoin="round"/>
<path d="M9.5 14.0665V9.75195" stroke="white" stroke-width="1.5" stroke-linecap="round" stroke-linejoin="round"/>
<path d="M8.51829 4.97963L5.98495 6.3888C5.41495 6.70547 4.93994 7.50505 4.93994 8.16213V10.8459C4.93994 11.503 5.40703 12.3026 5.98495 12.6192L8.51829 14.0284C9.05662 14.3292 9.94328 14.3292 10.4895 14.0284L13.0229 12.6192C13.5929 12.3026 14.0679 11.503 14.0679 10.8459V8.15422C14.0679 7.49713 13.6008 6.69755 13.0229 6.38088L10.4895 4.97171C9.94328 4.67088 9.05662 4.67088 8.51829 4.97963Z" stroke="white" stroke-width="1.5" stroke-linecap="round" stroke-linejoin="round"/>
</svg>
