<svg viewBox="0 0 16 16" fill="none" xmlns="http://www.w3.org/2000/svg">
<path d="M11.1111 15H11.2667C12.5735 15 13.2269 15 13.726 14.7457C14.165 14.522 14.522 14.165 14.7457 13.726C15 13.2269 15 12.5735 15 11.2667V4.73333C15 3.42654 15 2.77315 14.7457 2.27402C14.522 1.83498 14.165 1.47802 13.726 1.25432C13.2269 1 12.5735 1 11.2667 1H4.73333C3.42654 1 2.77315 1 2.27402 1.25432C1.83498 1.47802 1.47802 1.83498 1.25432 2.27402C1 2.77315 1 3.42654 1 4.73333V4.88889M7.61111 8.38889L11.8889 4.11111M11.8889 4.11111H8M11.8889 4.11111V8M3.48889 15H5.51111C6.3823 15 6.8179 15 7.15065 14.8305C7.44335 14.6813 7.68132 14.4433 7.83045 14.1507C8 13.8179 8 13.3823 8 12.5111V10.4889C8 9.6177 8 9.1821 7.83045 8.84935C7.68132 8.55665 7.44335 8.31868 7.15065 8.16955C6.8179 8 6.3823 8 5.51111 8H3.48889C2.6177 8 2.1821 8 1.84935 8.16955C1.55665 8.31868 1.31868 8.55665 1.16955 8.84935C1 9.1821 1 9.6177 1 10.4889V12.5111C1 13.3823 1 13.8179 1.16955 14.1507C1.31868 14.4433 1.55665 14.6813 1.84935 14.8305C2.1821 15 2.6177 15 3.48889 15Z" stroke="#8083A3" stroke-width="1.5" stroke-linecap="round" stroke-linejoin="round"/>
</svg>
