<svg viewBox="0 0 15 16" fill="none" xmlns="http://www.w3.org/2000/svg">
<path d="M7.29476 10.2444C8.44577 10.2444 9.37885 9.28932 9.37885 8.11111C9.37885 6.9329 8.44577 5.97778 7.29476 5.97778C6.14376 5.97778 5.21068 6.9329 5.21068 8.11111C5.21068 9.28932 6.14376 10.2444 7.29476 10.2444Z" stroke="#C3C5CE" stroke-width="1.5" stroke-linecap="round" stroke-linejoin="round"/>
<path d="M5.41151 13.3528L5.81752 14.2875C5.93822 14.5657 6.13519 14.8022 6.38455 14.9681C6.63391 15.134 6.92494 15.2223 7.22234 15.2222C7.51975 15.2223 7.81078 15.134 8.06014 14.9681C8.3095 14.8022 8.50647 14.5657 8.62717 14.2875L9.03318 13.3528C9.17771 13.0211 9.42082 12.7446 9.72787 12.5627C10.0369 12.3802 10.3943 12.3025 10.7491 12.3406L11.7425 12.4489C12.0382 12.4809 12.3366 12.4244 12.6016 12.2863C12.8666 12.1481 13.0867 11.9343 13.2353 11.6706C13.3841 11.4071 13.455 11.1051 13.4394 10.8012C13.4237 10.4972 13.3223 10.2045 13.1473 9.95842L12.5591 9.13116C12.3497 8.8344 12.2378 8.4772 12.2396 8.11111C12.2395 7.74602 12.3525 7.39029 12.5622 7.09501L13.1504 6.26775C13.3254 6.02169 13.4268 5.72894 13.4424 5.42501C13.4581 5.12109 13.3872 4.81905 13.2384 4.55556C13.0898 4.2919 12.8697 4.07804 12.6047 3.93989C12.3397 3.80175 12.0413 3.74527 11.7456 3.77728L10.7522 3.88553C10.3974 3.92367 10.0399 3.84595 9.73096 3.66351C9.4233 3.48053 9.18012 3.20257 9.03627 2.86943L8.62717 1.93472C8.50647 1.65648 8.3095 1.42006 8.06014 1.25415C7.81078 1.08824 7.51975 0.99995 7.22234 1C6.92494 0.99995 6.63391 1.08824 6.38455 1.25415C6.13519 1.42006 5.93822 1.65648 5.81752 1.93472L5.41151 2.86943C5.26766 3.20257 5.02448 3.48053 4.71682 3.66351C4.40783 3.84595 4.05038 3.92367 3.69562 3.88553L2.69912 3.77728C2.40341 3.74527 2.10497 3.80175 1.84 3.93989C1.57503 4.07804 1.3549 4.2919 1.2063 4.55556C1.05751 4.81905 0.986624 5.12109 1.00224 5.42501C1.01786 5.72894 1.11932 6.02169 1.29429 6.26775L1.88247 7.09501C2.09222 7.39029 2.20518 7.74602 2.20511 8.11111C2.20518 8.4762 2.09222 8.83193 1.88247 9.12721L1.29429 9.95447C1.11932 10.2005 1.01786 10.4933 1.00224 10.7972C0.986624 11.1011 1.05751 11.4032 1.2063 11.6667C1.35504 11.9302 1.5752 12.1439 1.84013 12.2821C2.10507 12.4202 2.40343 12.4768 2.69912 12.4449L3.69253 12.3367C4.04729 12.2986 4.40474 12.3763 4.71373 12.5587C5.02254 12.7412 5.26685 13.0192 5.41151 13.3528Z" stroke="#C3C5CE" stroke-width="1.5" stroke-linecap="round" stroke-linejoin="round"/>
</svg>
