<svg viewBox="0 0 17 18" fill="none" xmlns="http://www.w3.org/2000/svg">
<path d="M3.30729 10.7366C1.90778 11.3507 1.09753 12.2718 1.09753 13.193C1.09753 15.1121 4.41217 16.6473 8.46339 16.6473C12.5146 16.6473 15.8292 15.1121 15.8292 13.193C15.8292 12.1951 15.019 11.3507 13.6195 10.7366" stroke="white" stroke-width="1.5" stroke-linecap="round" stroke-linejoin="round"/>
<path d="M13.0302 11.7347C13.0302 12.1953 12.6619 12.5791 12.2199 12.5791H9.19995C8.758 12.5791 8.09507 12.5791 7.65312 12.5791H4.63312C4.19117 12.5791 3.82288 12.1953 3.82288 11.7347V10.1995C3.82288 9.73887 3.82288 9.04801 3.82288 8.58743V5.3634C3.82288 4.90282 4.11751 4.36548 4.4858 4.05843L7.80044 1.52526C8.16873 1.29497 8.68434 1.29497 9.05263 1.52526L12.3673 4.05843C12.7356 4.28872 13.0302 4.90282 13.0302 5.3634V8.51067C13.0302 8.97125 13.0302 9.66211 13.0302 10.1227V11.7347V11.7347Z" stroke="white" stroke-width="1.5" stroke-linecap="round" stroke-linejoin="round"/>
<path d="M9.93655 9.89243C9.93655 9.04804 9.27362 8.35718 8.46337 8.35718C7.65313 8.35718 6.9902 9.04804 6.9902 9.89243V12.5024H9.93655V9.89243Z" fill="white"/>
</svg>
