<svg viewBox="0 0 17 18" fill="none" xmlns="http://www.w3.org/2000/svg">
<path d="M3.21746 11.616C1.81307 12.1538 1 12.9605 1 13.7672C1 15.4479 4.32619 16.7925 8.39153 16.7925C12.4569 16.7925 15.7831 15.4479 15.7831 13.7672C15.7831 12.8933 14.97 12.1538 13.5656 11.616" stroke="#C6C6D1" stroke-width="1.5" stroke-linecap="round" stroke-linejoin="round"/>
<path d="M13.6396 11.616C13.6396 10.8092 13.6396 10.4059 13.4918 10.0697C13.27 9.33023 12.6048 8.72518 11.7178 8.45626C11.4221 8.32181 10.9047 8.32181 10.0177 8.32181H6.76547C5.87848 8.32181 5.43499 8.32181 5.06541 8.45626C4.25234 8.65795 3.58711 9.263 3.29145 10.0697C3.14362 10.4059 3.14362 10.8092 3.14362 11.616M11.3482 3.61587C11.3482 5.09488 10.0177 6.30498 8.3916 6.30498C6.76546 6.30498 5.43499 5.09488 5.43499 3.61587C5.43499 2.13686 6.76546 0.926758 8.3916 0.926758C10.0177 0.926758 11.3482 2.13686 11.3482 3.61587Z" stroke="#C6C6D1" stroke-width="1.5" stroke-linecap="round" stroke-linejoin="round"/>
<path d="M6.91327 11.616L8.39157 12.3555" stroke="#C6C6D1" stroke-width="1.5" stroke-linecap="round" stroke-linejoin="round"/>
<path d="M8.39154 12.3554L9.86985 11.6159" stroke="#C6C6D1" stroke-width="1.5" stroke-linecap="round" stroke-linejoin="round"/>
<path d="M8.39154 12.3555V13.9017" stroke="#C6C6D1" stroke-width="1.5" stroke-linecap="round" stroke-linejoin="round"/>
</svg>
