<svg viewBox="0 0 16 16" fill="none" xmlns="http://www.w3.org/2000/svg">
<path d="M2.00671 7.47998V10.4733C2.00671 13.4666 3.20671 14.6666 6.20005 14.6666H9.79338C12.7867 14.6666 13.9867 13.4666 13.9867 10.4733V7.47998" stroke="white" stroke-width="1.5" stroke-linecap="round" stroke-linejoin="round"/>
<path d="M7.99999 7.99992C9.21999 7.99992 10.12 7.00659 9.99999 5.78659L9.55999 1.33325H6.44666L5.99999 5.78659C5.87999 7.00659 6.77999 7.99992 7.99999 7.99992Z" stroke="white" stroke-width="1.5" stroke-linecap="round" stroke-linejoin="round"/>
<path d="M12.2067 7.99992C13.5533 7.99992 14.54 6.90659 14.4067 5.56659L14.22 3.73325C13.98 1.99992 13.3133 1.33325 11.5667 1.33325H9.53333L9.99999 6.00659C10.1133 7.10659 11.1067 7.99992 12.2067 7.99992Z" stroke="white" stroke-width="1.5" stroke-linecap="round" stroke-linejoin="round"/>
<path d="M3.76004 7.99992C4.86004 7.99992 5.85338 7.10659 5.96004 6.00659L6.10671 4.53325L6.42671 1.33325H4.39338C2.64671 1.33325 1.98004 1.99992 1.74004 3.73325L1.56004 5.56659C1.42671 6.90659 2.41338 7.99992 3.76004 7.99992Z" stroke="white" stroke-width="1.5" stroke-linecap="round" stroke-linejoin="round"/>
<path d="M8.00004 11.3333C6.88671 11.3333 6.33337 11.8866 6.33337 12.9999V14.6666H9.66671V12.9999C9.66671 11.8866 9.11337 11.3333 8.00004 11.3333Z" stroke="white" stroke-width="1.5" stroke-linecap="round" stroke-linejoin="round"/>
</svg>
