<svg viewBox="0 0 16 16" fill="none" xmlns="http://www.w3.org/2000/svg">
<path d="M2.00665 7.48V10.4733C2.00665 13.4667 3.20665 14.6667 6.19999 14.6667H9.79332C12.7867 14.6667 13.9867 13.4667 13.9867 10.4733V7.48" stroke="#C6C6D1" stroke-width="1.5" stroke-linecap="round" stroke-linejoin="round"/>
<path d="M7.99999 8C9.21999 8 10.12 7.00667 9.99999 5.78667L9.55999 1.33334H6.44666L5.99999 5.78667C5.87999 7.00667 6.77999 8 7.99999 8Z" stroke="#C6C6D1" stroke-width="1.5" stroke-linecap="round" stroke-linejoin="round"/>
<path d="M12.2067 8C13.5533 8 14.54 6.90667 14.4067 5.56667L14.22 3.73334C13.98 2 13.3133 1.33334 11.5667 1.33334H9.53333L9.99999 6.00667C10.1133 7.10667 11.1067 8 12.2067 8Z" stroke="#C6C6D1" stroke-width="1.5" stroke-linecap="round" stroke-linejoin="round"/>
<path d="M3.75998 8C4.85998 8 5.85332 7.10667 5.95998 6.00667L6.10665 4.53334L6.42665 1.33334H4.39332C2.64665 1.33334 1.97998 2 1.73998 3.73334L1.55998 5.56667C1.42665 6.90667 2.41332 8 3.75998 8Z" stroke="#C6C6D1" stroke-width="1.5" stroke-linecap="round" stroke-linejoin="round"/>
<path d="M7.99998 11.3333C6.88665 11.3333 6.33331 11.8867 6.33331 13V14.6667H9.66665V13C9.66665 11.8867 9.11331 11.3333 7.99998 11.3333Z" stroke="#C6C6D1" stroke-width="1.5" stroke-linecap="round" stroke-linejoin="round"/>
</svg>
