<svg viewBox="0 0 17 18" fill="none" xmlns="http://www.w3.org/2000/svg">
<path d="M3.25 10.8167C1.825 11.3828 1 12.2319 1 13.081C1 14.85 4.375 16.2652 8.5 16.2652C12.625 16.2652 16 14.85 16 13.081C16 12.1611 15.175 11.3828 13.75 10.8167" stroke="#C6C6D1" stroke-width="1.5" stroke-linecap="round" stroke-linejoin="round"/>
<path d="M13.75 10.7459V3.88223H11.65" stroke="#C6C6D1" stroke-width="1.5" stroke-linecap="round" stroke-linejoin="round"/>
<path d="M5.42506 3.88223H3.25006V10.7459" stroke="#C6C6D1" stroke-width="1.5" stroke-linecap="round" stroke-linejoin="round"/>
<path d="M11.575 9.11843V0.981079H5.42505V9.11843" stroke="#C6C6D1" stroke-width="1.2" stroke-linecap="round" stroke-linejoin="round"/>
<path d="M10 2.96237H9.32501" stroke="#C6C6D1" stroke-width="1.2" stroke-linecap="round" stroke-linejoin="round"/>
<path d="M7.67506 2.96237H7.00006" stroke="#C6C6D1" stroke-width="1.2" stroke-linecap="round" stroke-linejoin="round"/>
<path d="M10 4.58981H9.32501" stroke="#C6C6D1" stroke-width="1.2" stroke-linecap="round" stroke-linejoin="round"/>
<path d="M7.67506 4.58981H7.00006" stroke="#C6C6D1" stroke-width="1.2" stroke-linecap="round" stroke-linejoin="round"/>
<path d="M10 6.28806H9.32501" stroke="#C6C6D1" stroke-width="1.2" stroke-linecap="round" stroke-linejoin="round"/>
<path d="M7.67506 6.28806H7.00006" stroke="#C6C6D1" stroke-width="1.2" stroke-linecap="round" stroke-linejoin="round"/>
<path d="M10 7.9155H9.32501" stroke="#C6C6D1" stroke-width="1.2" stroke-linecap="round" stroke-linejoin="round"/>
<path d="M7.67506 7.91551H7.00006" stroke="#C6C6D1" stroke-width="1.2" stroke-linecap="round" stroke-linejoin="round"/>
<path d="M6.77502 11.595L8.27502 12.3734" stroke="#C6C6D1" stroke-width="1.5" stroke-linecap="round" stroke-linejoin="round"/>
<path d="M8.27496 12.3734L9.77496 11.595" stroke="#C6C6D1" stroke-width="1.5" stroke-linecap="round" stroke-linejoin="round"/>
<path d="M8.27496 12.3734V14.0008" stroke="#C6C6D1" stroke-width="1.5" stroke-linecap="round" stroke-linejoin="round"/>
</svg>
