<svg viewBox="0 0 17 14" fill="none" xmlns="http://www.w3.org/2000/svg">
<path d="M1.83333 7.85714C2.29357 7.85714 2.66667 7.47339 2.66667 7C2.66667 6.52661 2.29357 6.14286 1.83333 6.14286C1.3731 6.14286 1 6.52661 1 7C1 7.47339 1.3731 7.85714 1.83333 7.85714Z" fill="#7747FF"/>
<path d="M1.83333 2.71429C2.29357 2.71429 2.66667 2.33053 2.66667 1.85714C2.66667 1.38376 2.29357 1 1.83333 1C1.3731 1 1 1.38376 1 1.85714C1 2.33053 1.3731 2.71429 1.83333 2.71429Z" fill="#7747FF"/>
<path d="M1.83333 13C2.29357 13 2.66667 12.6162 2.66667 12.1429C2.66667 11.6695 2.29357 11.2857 1.83333 11.2857C1.3731 11.2857 1 11.6695 1 12.1429C1 12.6162 1.3731 13 1.83333 13Z" fill="#7747FF"/>
<path d="M16 7L6 7M16 1.85714L6 1.85714M16 12.1429L6 12.1429M2.66667 7C2.66667 7.47339 2.29357 7.85714 1.83333 7.85714C1.3731 7.85714 1 7.47339 1 7C1 6.52661 1.3731 6.14286 1.83333 6.14286C2.29357 6.14286 2.66667 6.52661 2.66667 7ZM2.66667 1.85714C2.66667 2.33053 2.29357 2.71429 1.83333 2.71429C1.3731 2.71429 1 2.33053 1 1.85714C1 1.38376 1.3731 1 1.83333 1C2.29357 1 2.66667 1.38376 2.66667 1.85714ZM2.66667 12.1429C2.66667 12.6162 2.29357 13 1.83333 13C1.3731 13 1 12.6162 1 12.1429C1 11.6695 1.3731 11.2857 1.83333 11.2857C2.29357 11.2857 2.66667 11.6695 2.66667 12.1429Z" stroke="#7747FF" stroke-width="2" stroke-linecap="round" stroke-linejoin="round"/>
</svg>
