<svg viewBox="0 0 20 20" fill="none" xmlns="http://www.w3.org/2000/svg">
<path d="M1 14L9.64 18.898C9.73 19 9.82 19 9.91 19C10 19 10 19 10.09 19C10.18 19 10.18 19 10.36 18.898L19 14" stroke="white" stroke-width="1.5" stroke-linecap="round" stroke-linejoin="round"/>
<path d="M5.5 7.5L1 9.69595L9.64 13.9122C9.73 14 9.82 14 9.91 14C10 14 10 14 10.09 14C10.18 14 10.18 14 10.36 13.9122L19 9.69595L14.5 7.5M1 5.30405L9.64 1.08784C9.82 1.08784 9.82 1 9.91 1C10 1 10 1 10.09 1C10.18 1 10.18 1 10.36 1.08784L19 5.30405L10.36 9.52027C10.27 9.60811 10.18 9.60811 10.09 9.60811C10 9.60811 10 9.60811 9.91 9.60811C9.82 9.60811 9.82 9.60811 9.64 9.52027L1 5.30405Z" stroke="white" stroke-width="1.5" stroke-linecap="round" stroke-linejoin="round"/>
</svg>
