<svg viewBox="0 0 13 21" fill="none" xmlns="http://www.w3.org/2000/svg">
<mask id="mask0_1464_9769" style="mask-type:alpha" maskUnits="userSpaceOnUse" x="1" y="0" width="12" height="11">
<path d="M7.02092 0.128369C5.96295 0.320921 5.00115 0.706027 4.10347 1.34787C3.65463 1.6367 3.26992 1.98971 2.91726 2.37482C2.91726 2.40691 2.91726 2.40691 2.8852 2.40691C2.8852 2.40691 2.8852 2.40691 2.85314 2.439C2.85314 2.47109 2.82108 2.47109 2.82108 2.50319C2.62872 2.79202 2.43636 3.08085 2.30812 3.36967C1.9234 4.17198 1.82722 5.00637 1.98752 5.87286C2.14782 6.64307 2.43636 7.31701 2.8852 7.99094C3.39816 8.79325 4.07141 9.46718 4.80879 10.0769C4.84085 10.109 4.93703 10.1732 4.93703 10.1732C4.93703 10.1732 5.16145 9.98065 5.28969 9.88438C6.18737 9.14626 7.18122 8.53651 8.27126 8.1514C8.97658 7.89467 9.6819 7.67002 10.3552 7.3491C10.9322 7.09236 11.4773 6.80353 11.9902 6.38633C12.407 6.03332 12.7596 5.58403 12.8879 5.03847C13.0802 4.30035 13.0161 3.59432 12.7596 2.88829C12.4711 2.11808 11.9902 1.50833 11.317 0.994856C10.7399 0.545566 10.0987 0.256737 9.3613 0.128369C9.00864 0.0320921 8.68804 0 8.33538 0C7.88654 0 7.46976 0.0320921 7.02092 0.128369Z" fill="white"/>
</mask>
<g mask="url(#mask0_1464_9769)">
<path d="M17.5685 7.12443L5.03305 15.2116L-2.88574 2.95245L9.64968 -5.13477L17.5685 7.12443Z" fill="url(#paint0_linear_1464_9769)"/>
</g>
<mask id="mask1_1464_9769" style="mask-type:alpha" maskUnits="userSpaceOnUse" x="3" y="9" width="10" height="12">
<path d="M4.25551 18.8387C4.38375 18.935 4.54405 19.0313 4.67229 19.0955C4.86465 19.2238 5.08907 19.3201 5.28143 19.4164C5.79439 19.6731 6.3394 19.8336 6.91648 19.962C7.42944 20.0582 7.9424 20.1224 8.45536 20.0903C8.71184 20.0903 8.96832 20.0582 9.2248 20.0261C9.67363 19.962 10.1225 19.8015 10.5072 19.609C10.8599 19.4485 11.1804 19.2238 11.469 18.9671C11.6934 18.7746 11.9178 18.5499 12.1102 18.2932C12.3346 18.0043 12.527 17.6834 12.6552 17.3625C12.7193 17.1699 12.7834 16.9774 12.8476 16.7848C12.8796 16.5923 12.9117 16.3997 12.9437 16.2072C12.9758 15.9504 12.9437 15.6937 12.9117 15.437C12.8796 15.1161 12.7514 14.8272 12.5911 14.5384C12.4949 14.3458 12.3667 14.1854 12.2064 14.0249C12.014 13.8003 11.7896 13.6398 11.5652 13.4794C11.3087 13.2868 11.0202 13.1263 10.7316 12.998C10.379 12.8375 10.0584 12.6771 9.70569 12.5487C9.3851 12.4203 9.0645 12.324 8.7439 12.1957C8.16682 11.971 7.58974 11.7785 7.04472 11.4575C6.56382 11.2008 6.14705 10.912 5.73027 10.6232C5.44173 10.4306 5.15319 10.206 4.89671 9.94922C4.89671 9.94922 2.29986 13.5435 4.25551 18.8387Z" fill="white"/>
</mask>
<g mask="url(#mask1_1464_9769)">
<path d="M12.8887 10.1099H2.21277V20.2831H12.8887V10.1099Z" fill="url(#paint1_linear_1464_9769)"/>
</g>
<mask id="mask2_1464_9769" style="mask-type:alpha" maskUnits="userSpaceOnUse" x="0" y="2" width="6" height="17">
<path d="M2.88539 2.34188C2.53273 2.72699 2.24419 3.11209 1.95565 3.52929C1.66712 3.97858 1.41064 4.42787 1.18622 4.87716C0.993857 5.26227 0.833558 5.64737 0.705318 6.06457C0.480899 6.70641 0.320599 7.34826 0.192359 8.02219C0.0961797 8.63194 0.0320599 9.24169 0 9.88353C0 10.1403 0 10.397 0 10.6537C0.0320599 11.103 0.0641198 11.5202 0.12824 11.9374C0.192359 12.3546 0.256479 12.8039 0.416779 13.2211C0.705318 14.0555 1.05798 14.8899 1.50682 15.6601C1.73123 16.0452 1.98771 16.4303 2.27625 16.7833C2.46861 17.008 2.66097 17.2005 2.82127 17.4573C2.98157 17.6498 3.14187 17.8745 3.33423 18.0349C3.52659 18.2275 3.71895 18.388 3.91131 18.5484C4.07161 18.6768 4.26397 18.8052 4.42427 18.9335C2.46861 13.6062 5.06546 10.044 5.06546 10.044C5.06546 10.044 4.96929 9.97981 4.93723 9.94772C4.19985 9.33797 3.55865 8.66403 3.01363 7.86173C2.59685 7.21989 2.27625 6.51386 2.11595 5.74365C1.95565 4.81298 2.05183 3.97858 2.43655 3.17628C2.56479 2.85536 2.75715 2.56653 2.94951 2.30979C2.94951 2.2777 2.98157 2.2777 2.98157 2.24561C2.94951 2.2777 2.91745 2.30979 2.88539 2.34188Z" fill="white"/>
</mask>
<g mask="url(#mask2_1464_9769)">
<path d="M5.80277 2.40677L5.12951 19.2231L-0.577148 18.9984L0.0961097 2.18213L5.80277 2.40677Z" fill="url(#paint2_linear_1464_9769)"/>
</g>
<defs>
<linearGradient id="paint0_linear_1464_9769" x1="18.2508" y1="-2.01346" x2="4.98132" y2="6.53328" gradientUnits="userSpaceOnUse">
<stop stop-color="#5AD9FD"/>
<stop offset="1" stop-color="#0A42A2"/>
</linearGradient>
<linearGradient id="paint1_linear_1464_9769" x1="3.46033" y1="15.2059" x2="12.8806" y2="15.2059" gradientUnits="userSpaceOnUse">
<stop stop-color="#FEE372"/>
<stop offset="1" stop-color="#FAAF42"/>
</linearGradient>
<linearGradient id="paint2_linear_1464_9769" x1="2.89228" y1="3.49485" x2="2.30969" y2="18.2778" gradientUnits="userSpaceOnUse">
<stop stop-color="#E1382F"/>
<stop offset="0.00446888" stop-color="#E1382F"/>
<stop offset="1" stop-color="#FB6C7E"/>
</linearGradient>
</defs>
</svg>
