<svg viewBox="0 0 4 18" fill="none" xmlns="http://www.w3.org/2000/svg">
<path d="M1.6 17.2C2.48366 17.2 3.2 16.4837 3.2 15.6C3.2 14.7163 2.48366 14 1.6 14C0.716344 14 0 14.7163 0 15.6C0 16.4837 0.716344 17.2 1.6 17.2Z" fill="#444444"/>
<path d="M1.6 10.1C2.48366 10.1 3.2 9.38365 3.2 8.49999C3.2 7.61634 2.48366 6.89999 1.6 6.89999C0.716344 6.89999 0 7.61634 0 8.49999C0 9.38365 0.716344 10.1 1.6 10.1Z" fill="#444444"/>
<path d="M1.6 3.2C2.48366 3.2 3.2 2.48366 3.2 1.6C3.2 0.716344 2.48366 0 1.6 0C0.716344 0 0 0.716344 0 1.6C0 2.48366 0.716344 3.2 1.6 3.2Z" fill="#444444"/>
</svg>
