<svg viewBox="0 0 14 15" fill="none" xmlns="http://www.w3.org/2000/svg">
<path d="M9.65714 3.7047V3.18121C9.65714 2.39597 9.65714 2.04698 9.48571 1.69799C9.4 1.43624 9.14286 1.26174 8.88571 1.08725C8.62857 1 8.2 1 7.51429 1H6.4C5.62857 1 5.28571 1 5.02857 1.1745C4.77143 1.26174 4.6 1.43624 4.42857 1.69799C4.25714 2.04698 4.25714 2.39597 4.25714 3.18121V3.7047M5.62857 7.63087V10.2483M8.28571 7.63087V10.2483M1 3.7047H13M11.6286 3.7047V10.6846C11.6286 11.8188 11.6286 12.4295 11.3714 12.8658C11.2 13.302 10.8571 13.5638 10.5143 13.7383C10.0857 14 9.48571 14 8.37143 14H5.45714C4.34286 14 3.74286 14 3.31429 13.7383C2.97143 13.5638 2.62857 13.2148 2.45714 12.8658C2.2 12.4295 2.2 11.8188 2.2 10.6846V3.7047" stroke="#ABAEB4" stroke-width="1.5" stroke-linecap="round" stroke-linejoin="round"/>
</svg>
