<svg viewBox="0 0 16 17" fill="none" xmlns="http://www.w3.org/2000/svg">
<path d="M6.95 1V2.17073M2.12 7.21951H1M3.41584 3.52539L2.62388 2.69756M10.4849 3.52539L11.2768 2.69756M12.9 7.21951H11.78M4.15005 7.21957C4.15005 5.60312 5.40365 4.29274 6.95005 4.29274C8.00426 4.29274 8.92239 4.90172 9.40005 5.80151M3.8 16C2.2536 16 1 14.6896 1 13.0732C1 11.4567 2.2536 10.1463 3.8 10.1463C4.12493 10.1463 4.43693 10.2042 4.7271 10.3106C5.22843 8.93138 6.50471 7.95122 8 7.95122C9.49529 7.95122 10.7716 8.93139 11.2729 10.3106C11.5631 10.2042 11.8751 10.1463 12.2 10.1463C13.7464 10.1463 15 11.4567 15 13.0732C15 14.6896 13.7464 16 12.2 16C8.95179 16 6.51545 16 3.8 16Z" stroke="#7747FF" stroke-width="1.5" stroke-linecap="round" stroke-linejoin="round"/>
</svg>
