<svg viewBox="0 0 14 12" fill="none" xmlns="http://www.w3.org/2000/svg">
<path d="M5.54727 7.56196C5.17429 7.18963 4.94727 6.68369 4.94727 6.11612C4.94727 4.97904 5.86316 4.0625 6.99959 4.0625C7.56197 4.0625 8.07959 4.29018 8.44607 4.6625" stroke="#333333" stroke-width="1.5" stroke-linecap="round" stroke-linejoin="round"/>
<path d="M9.01378 6.48047C8.8633 7.31722 8.20427 7.97755 7.36816 8.12933" stroke="#333333" stroke-width="1.5" stroke-linecap="round" stroke-linejoin="round"/>
<path d="M3.53273 9.57652C2.50332 8.7683 1.63154 7.58777 0.999756 6.11598C1.63803 4.63771 2.51565 3.45069 3.55154 2.63599C4.58094 1.82128 5.76862 1.37891 6.99975 1.37891C8.23802 1.37891 9.42505 1.82777 10.4609 2.64831" stroke="#333333" stroke-width="1.5" stroke-linecap="round" stroke-linejoin="round"/>
<path d="M11.8309 4.07617C12.2772 4.66904 12.6696 5.35336 12.9998 6.11682C11.7239 9.07271 9.4692 10.8532 6.9998 10.8532C6.44002 10.8532 5.88802 10.7624 5.35742 10.5854" stroke="#333333" stroke-width="1.5" stroke-linecap="round" stroke-linejoin="round"/>
<path d="M12.1161 1L1.88428 11.2318" stroke="#333333" stroke-width="1.5" stroke-linecap="round" stroke-linejoin="round"/>
</svg>
