<svg viewBox="0 0 31 23" fill="none" xmlns="http://www.w3.org/2000/svg">
<path d="M30.0346 5.53451C30.0346 5.53451 29.7423 3.41528 28.7923 2.53836C27.6231 1.29605 26.3808 1.29605 25.7231 1.22297C21.5577 0.930664 15.2 0.930664 15.2 0.930664C15.2 0.930664 8.84231 0.930664 4.60385 1.22297C3.94615 1.29605 2.63077 1.29605 1.53462 2.53836C0.584615 3.41528 0.292308 5.53451 0.292308 5.53451C0.292308 5.53451 0 8.01913 0 10.4307V12.7691C0 15.2537 0.292308 17.6653 0.292308 17.6653C0.292308 17.6653 0.584615 19.7845 1.53462 20.6614C2.70385 21.9037 4.23846 21.8307 4.89615 21.9768C7.30769 22.1961 15.2 22.2691 15.2 22.2691C15.2 22.2691 21.5577 22.2691 25.7962 21.9768C26.3808 21.9037 27.6962 21.9037 28.8654 20.6614C29.7423 19.7114 30.1077 17.6653 30.1077 17.6653C30.1077 17.6653 30.4 15.1807 30.4 12.7691V10.4307C30.3269 8.01913 30.0346 5.53451 30.0346 5.53451Z" fill="#FB091F"/>
<path fill-rule="evenodd" clip-rule="evenodd" d="M20.3884 11.5999L12.35 6.99609V16.2038L19.3654 12.1115L20.3884 11.5999Z" fill="white"/>
</svg>
